<svg width="171" height="32" viewBox="0 0 171 32" fill="none" xmlns="http://www.w3.org/2000/svg">
<path d="M48.4604 24.3258C51.274 24.3258 53.4308 23.0222 54.7993 21.3022L52.4893 19.3193C51.5477 20.4915 50.1135 21.3351 48.4604 21.3351C45.6139 21.3351 43.6433 19.1988 43.6433 16.2519C43.6433 13.0639 45.6905 11.0482 48.4604 11.0482C50.1135 11.0482 51.5587 11.9575 52.4893 13.0749L54.7993 11.103C53.0476 8.95576 50.65 8.04649 48.4604 8.04649C43.2601 8.04649 40.3479 11.7055 40.3479 16.2519C40.3479 21.5104 44.1031 24.3368 48.4604 24.3368V24.3258Z" fill="#08173E"/>
<path d="M64.7073 13.2064V14.4552H64.6525C63.8424 13.5131 62.7147 13.0201 61.4228 13.0201C58.4888 13.0201 56.2663 15.3864 56.2663 18.7168C56.2663 22.1019 58.4778 24.3478 61.5214 24.3478C62.9227 24.3478 64.0285 23.8109 64.7839 22.8359H64.8386V24.1615H67.6413V13.2064H64.7073ZM62.0578 21.7185C60.4156 21.7185 59.2551 20.5025 59.2551 18.7278C59.2551 16.8544 60.4923 15.6603 62.0688 15.6603C63.6562 15.6603 64.8277 16.9749 64.8277 18.7278C64.8277 20.5244 63.5687 21.7185 62.0469 21.7185H62.0578Z" fill="#08173E"/>
<path d="M76.7939 13.0201C75.502 13.0201 74.3087 13.6555 73.4876 14.8168H73.4547V13.2064H70.5207V24.1615H73.4547V19.0893C73.4547 17.457 74.44 16.23 76.2465 16.23C76.4107 16.23 76.7282 16.2409 77.0238 16.2628V13.0311C76.9581 13.0201 76.8815 13.0201 76.7939 13.0201Z" fill="#08173E"/>
<path d="M86.5814 7.6521V14.4552H86.5267C85.7056 13.5131 84.556 13.0201 83.2204 13.0201C80.2863 13.0201 78.0638 15.3864 78.0638 18.7168C78.0638 22.1019 80.2753 24.3478 83.3079 24.3478C84.775 24.3478 85.9026 23.8109 86.669 22.8359H86.7347V24.1615H89.5264V7.6521H86.5814ZM83.8554 21.7295C82.2131 21.7295 81.0527 20.5134 81.0527 18.7387C81.0527 16.8654 82.2898 15.6713 83.8663 15.6713C85.5413 15.6713 86.7456 16.9859 86.7456 18.7387C86.7456 20.5354 85.4647 21.7295 83.8554 21.7295Z" fill="#08173E"/>
<path d="M94.0918 11.6726C95.088 11.6726 95.9201 10.8729 95.9201 9.876C95.9201 8.90099 95.088 8.09031 94.0918 8.09031C93.0845 8.09031 92.2744 8.90099 92.2744 9.876C92.2744 10.8729 93.0845 11.6726 94.0918 11.6726ZM92.6247 24.1615H95.5588V13.2064H92.6247V24.1615Z" fill="#08173E"/>
<path d="M100.102 24.3478C101.088 24.3478 101.92 23.559 101.92 22.573C101.92 21.5871 101.088 20.7764 100.102 20.7764C99.0841 20.7764 98.2739 21.5871 98.2739 22.573C98.2739 23.559 99.0841 24.3478 100.102 24.3478Z" fill="#08173E"/>
<path d="M105.171 24.1615H107.109V17.5008H115.44V24.1615H117.4V8.23272H115.44V15.7041H107.109V8.23272H105.171V24.1615Z" fill="#08173E"/>
<path d="M130.779 18.5415C130.779 15.4083 128.742 13.1187 125.699 13.1187C122.754 13.1187 120.476 15.4193 120.476 18.7168C120.476 22.0472 122.808 24.3039 125.907 24.3039C127.899 24.3039 129.388 23.4604 130.319 22.2553L129.049 21.1708C128.37 22.0143 127.33 22.6387 125.972 22.6387C124.013 22.6387 122.568 21.3132 122.338 19.2865H130.724C130.735 19.2207 130.779 18.8264 130.779 18.5415ZM125.797 14.7949C127.527 14.7949 128.688 15.989 128.972 17.7747H122.381C122.721 15.9232 124.089 14.7949 125.797 14.7949Z" fill="#08173E"/>
<path d="M142 13.2502V14.8606H141.957C141.048 13.7213 139.701 13.1187 138.212 13.1187C135.125 13.1187 132.87 15.5508 132.87 18.7716C132.87 22.1239 135.213 24.3039 138.223 24.3039C139.833 24.3039 141.168 23.6028 142.055 22.4306H142.077V24.1615H143.818V13.2392L142 13.2502ZM138.398 22.6387C136.176 22.6387 134.72 20.9845 134.72 18.7825C134.72 16.3505 136.34 14.7729 138.42 14.7729C140.511 14.7729 142.066 16.5367 142.066 18.7825C142.066 21.0941 140.358 22.6387 138.398 22.6387Z" fill="#08173E"/>
<path d="M147.332 24.1615H149.138V7.6521H147.332V24.1615Z" fill="#08173E"/>
<path d="M155.861 24.3039C157.152 24.3039 157.908 23.9753 158.499 23.6357L158.017 22.0472C157.503 22.343 156.824 22.6059 156.178 22.6059C155.149 22.6059 154.842 21.9595 154.842 20.6449V14.8277H158.455V13.2502H154.842V9.31728L153.025 9.51448V13.2502H151.635V14.8277H153.025V20.9188C153.025 23.1208 153.923 24.3149 155.861 24.3149V24.3039Z" fill="#08173E"/>
<path d="M166.819 13.1187C165.155 13.1187 163.732 13.776 162.802 15.014H162.758V7.6521H160.94V24.1615H162.758V18.662C162.758 16.2081 164.126 14.7839 166.294 14.7839C167.892 14.7839 168.965 15.6603 168.965 18.1362V24.1725H170.783V17.6103C170.783 14.4991 169.184 13.1078 166.819 13.1078V13.1187Z" fill="#08173E"/>
<rect width="32" height="32" rx="16" />
<g clip-path="url(#clip0_955_1337)">
<path fill-rule="evenodd" clip-rule="evenodd" d="M27.1111 13.1592C23.0853 16.882 17.7766 18.9524 12.2622 18.9503C10.5668 18.9521 8.87693 18.7591 7.22666 18.3752C6.60828 17.5113 6.12022 16.5633 5.77777 15.5608C5.60028 15.0406 5.47814 14.5035 5.41333 13.9582C6.04889 14.0109 6.68444 14.0417 7.32888 14.0417C10.3749 14.0436 13.3872 13.412 16.1699 12.1881C18.9526 10.9642 21.4433 9.17525 23.48 6.93774C25.9422 8.14076 27.1644 10.6083 27.1111 13.1592Z" fill="#67CC65"/>
<path fill-rule="evenodd" clip-rule="evenodd" d="M27.111 13.1592C27.111 13.2119 27.111 13.2646 27.111 13.3172C27.111 13.3699 27.111 13.528 27.111 13.6334C27.111 13.8265 27.071 14.0241 27.0399 14.2217C27.0177 14.3446 26.9954 14.472 26.9688 14.5949C26.9421 14.7178 26.9288 14.7881 26.9066 14.8847C26.8488 15.1086 26.7866 15.3237 26.711 15.5476C24.7732 21.33 16.2221 25.7777 16.2221 25.7777C16.2221 25.7777 15.2488 25.2771 13.8888 24.3858L13.631 24.219C11.7246 22.9683 9.97851 21.494 8.43101 19.8284C8.34212 19.7275 8.25323 19.6309 8.16878 19.5299C7.83545 19.1435 7.5199 18.744 7.22656 18.3313C8.87507 18.73 10.565 18.9377 12.2621 18.9503C17.7765 18.9525 23.0852 16.882 27.111 13.1592Z" fill="#2761E7"/>
<path d="M23.4799 6.93785C21.4411 9.17756 18.9476 10.9678 16.1616 12.1918C13.3757 13.4158 10.36 14.0461 7.31097 14.0418C6.66652 14.0418 6.03097 14.011 5.39541 13.9584C5.38185 13.877 5.37295 13.7949 5.36875 13.7125C5.33255 13.3815 5.32067 13.0485 5.33319 12.7158V12.47C5.33319 12.3602 5.33319 12.2504 5.3643 12.1451C5.39541 12.0397 5.39541 11.8904 5.41763 11.7675C5.43986 11.6445 5.45763 11.5304 5.4843 11.4162C5.51097 11.3021 5.53763 11.1835 5.56875 11.065C5.59986 10.9464 5.61319 10.9025 5.63986 10.8235C5.66652 10.7445 5.66652 10.7313 5.6843 10.683C5.70208 10.6347 5.75986 10.4591 5.8043 10.3537C5.82188 10.2964 5.84417 10.2406 5.87097 10.1869C5.93319 10.0332 6.0043 9.87952 6.07986 9.74781C6.15541 9.61609 6.15986 9.59414 6.2043 9.5195C6.28875 9.36583 6.38652 9.21216 6.48875 9.08044C6.59097 8.94872 6.67986 8.81262 6.78208 8.6809C6.94409 8.47682 7.12085 8.2846 7.31097 8.10574L7.4043 8.01792C7.47069 7.95296 7.54041 7.89141 7.61319 7.83352C7.70652 7.75449 7.8043 7.67985 7.90208 7.60521H7.92875L8.15097 7.44715C8.30208 7.34617 8.46208 7.24958 8.62652 7.15737L8.87541 7.02566C8.96874 6.97736 9.06208 6.93346 9.15986 6.89394L9.39986 6.79296C9.5643 6.7271 9.73763 6.66563 9.91541 6.60855H9.9643C10.7708 6.33036 11.6214 6.19799 12.4754 6.21779H12.6799C12.911 6.21779 13.1243 6.26609 13.3687 6.30561H13.4665L13.7332 6.36268L13.9421 6.41098L14.2665 6.50757L14.4665 6.57343C14.5732 6.60855 14.6754 6.64807 14.7821 6.69197C14.8887 6.73588 14.9865 6.7754 15.0843 6.82369C15.1821 6.87199 15.391 6.96858 15.5287 7.04761L15.7865 7.19689L15.9776 7.31983C16.0589 7.36845 16.1375 7.42121 16.2132 7.47789C16.2843 7.4252 16.3554 7.37251 16.431 7.32422C16.5776 7.22762 16.7332 7.13542 16.8754 7.04761C17.0176 6.9598 17.1954 6.88077 17.3643 6.80613C18.409 6.35565 19.5462 6.15412 20.6843 6.21779H20.951C21.1776 6.21779 21.3954 6.26609 21.631 6.30561C21.7865 6.33195 21.9421 6.36707 22.0754 6.40659C22.2087 6.4461 22.3021 6.46367 22.4132 6.49879C22.5243 6.53391 22.751 6.60855 22.911 6.67002C23.0754 6.73149 23.231 6.79735 23.3865 6.87199L23.4799 6.93785Z" fill="#FEC601"/>
<path d="M5.39551 13.9583C5.39551 13.8749 5.39551 13.7914 5.37329 13.7124C5.37602 13.7947 5.38344 13.8768 5.39551 13.9583Z" fill="#FEC601"/>
</g>
<defs>
<clipPath id="clip0_955_1337">
<rect width="21.7778" height="19.5556" fill="white" transform="translate(5.33325 6.22217)"/>
</clipPath>
</defs>
</svg>
