<svg width="154" height="20" viewBox="0 0 154 20" fill="none" xmlns="http://www.w3.org/2000/svg">
<path fill-rule="evenodd" clip-rule="evenodd" d="M39.0643 19.2437C39.0643 19.574 38.8585 19.7392 38.4471 19.7392H32.8922C32.4978 19.7392 32.3007 19.574 32.3007 19.2437V19.1394C32.3007 18.9308 32.4678 18.6135 32.8022 18.1875C33.1365 17.7616 33.3036 17.3313 33.3036 16.8966V4.97866C33.3036 4.52663 33.1365 4.08764 32.8022 3.66169C32.4678 3.23574 32.3007 2.93583 32.3007 2.76197V2.65766C32.3007 2.46641 32.4893 2.26648 32.8664 2.05785L36.7497 0.128023C37.1098 -0.0284495 37.3969 -0.0414889 37.6113 0.0889047C37.8256 0.219298 37.9327 0.414889 37.9327 0.675676V16.8966C37.9327 17.3313 38.1213 17.7616 38.4985 18.1875C38.8757 18.6135 39.0643 18.9308 39.0643 19.1394V19.2437ZM14.1058 18.0962C12.8628 19.3653 11.1012 19.9999 8.82097 19.9999C6.31784 19.9999 4.22189 19.0263 2.53314 17.0791C0.844379 15.1319 0 12.8544 0 10.2465C0 7.56907 0.788658 5.35673 2.36598 3.60945C3.94329 1.86218 6.00923 0.988543 8.5638 0.988543C10.5869 0.988543 12.3356 1.47969 13.8101 2.46199C15.2845 3.44429 16.0218 4.61348 16.0218 5.96958C16.0218 6.57808 15.8289 7.07358 15.4431 7.45606C15.0574 7.83855 14.5387 8.02979 13.8872 8.02979C13.3043 8.02979 12.7814 7.85159 12.3185 7.49518C11.8556 7.13877 11.4741 6.70847 11.1741 6.20429C10.8741 5.7001 10.5697 5.19156 10.2611 4.67868C9.95253 4.1658 9.57963 3.73115 9.14244 3.37475C8.70525 3.01834 8.20376 2.84013 7.63799 2.84013C6.78075 2.84013 6.04781 3.2487 5.43917 4.06583C4.83053 4.88296 4.52621 5.98696 4.52621 7.37783C4.52621 9.82923 5.10914 11.8416 6.27498 13.415C7.44082 14.9885 8.78668 15.7752 10.3126 15.7752C10.8783 15.7752 11.397 15.6882 11.8685 15.5144C12.3399 15.3405 12.76 15.0928 13.1286 14.7711C13.4972 14.4495 13.7801 14.167 13.9773 13.9236C14.1744 13.6802 14.4016 13.3759 14.6588 13.0108C14.8988 12.7153 15.1988 12.6153 15.5589 12.7109C15.9189 12.8065 16.0903 13.063 16.0732 13.4802C16.0046 15.2884 15.3488 16.827 14.1058 18.0962ZM29.1889 18.1616C27.8516 19.3873 26.2315 20.0001 24.3284 20.0001C22.3396 20.0001 20.6551 19.3786 19.275 18.1355C17.8948 16.8924 17.2047 15.332 17.2047 13.4544C17.2047 11.5767 17.8905 10.025 19.2621 8.79931C20.6337 7.57361 22.2624 6.96076 24.1484 6.96076C26.1029 6.96076 27.7659 7.57796 29.1375 8.81235C30.5091 10.0467 31.1949 11.6115 31.1949 13.5065C31.1949 15.3842 30.5262 16.9359 29.1889 18.1616ZM24.8686 18.7221C24.3885 18.7221 23.9385 18.4483 23.5184 17.9006C23.0984 17.353 22.7684 16.6836 22.5283 15.8926C22.2883 15.1015 22.0997 14.3148 21.9626 13.5324C21.8254 12.7501 21.7568 12.072 21.7568 11.4983C21.7568 10.403 21.8854 9.58587 22.1426 9.04691C22.3997 8.50795 22.8284 8.23847 23.4284 8.23847C24.0456 8.23847 24.6071 8.71658 25.1129 9.6728C25.6187 10.629 25.9787 11.6461 26.193 12.724C26.4073 13.8019 26.5145 14.7321 26.5145 15.5144C26.5145 17.6529 25.9659 18.7221 24.8686 18.7221ZM47.2165 20.0001C49.1196 20.0001 50.7397 19.3873 52.077 18.1616C53.4143 16.9359 54.083 15.3842 54.083 13.5065C54.083 11.6115 53.3972 10.0467 52.0256 8.81235C50.654 7.57796 48.991 6.96076 47.0365 6.96076C45.1506 6.96076 43.5218 7.57361 42.1502 8.79931C40.7786 10.025 40.0929 11.5767 40.0929 13.4544C40.0929 15.332 40.7829 16.8924 42.1631 18.1355C43.5432 19.3786 45.2277 20.0001 47.2165 20.0001ZM46.4065 17.9006C46.8266 18.4483 47.2766 18.7221 47.7567 18.7221C48.854 18.7221 49.4026 17.6529 49.4026 15.5144C49.4026 14.7321 49.2954 13.8019 49.0811 12.724C48.8668 11.6461 48.5068 10.629 48.001 9.6728C47.4952 8.71658 46.9337 8.23847 46.3165 8.23847C45.7165 8.23847 45.2879 8.50795 45.0307 9.04691C44.7735 9.58587 44.6449 10.403 44.6449 11.4983C44.6449 12.072 44.7135 12.7501 44.8507 13.5324C44.9878 14.3148 45.1764 15.1015 45.4164 15.8926C45.6565 16.6836 45.9865 17.353 46.4065 17.9006ZM61.541 19.7654C61.9525 19.7654 62.1582 19.6002 62.1582 19.2699V19.1656C62.1582 18.957 61.9696 18.6353 61.5924 18.2007C61.2152 17.766 61.0266 17.3314 61.0266 16.8968V11.2116C61.0266 10.4292 61.1681 9.81204 61.451 9.36001C61.7339 8.90798 62.1496 8.68196 62.6983 8.68196C63.2812 8.68196 63.7055 8.95144 63.9713 9.4904C64.237 10.0294 64.4042 10.9421 64.4727 12.2287L64.7299 16.8968C64.7642 17.3314 64.6185 17.766 64.2927 18.2007C63.967 18.6353 63.8041 18.957 63.8041 19.1656V19.2699C63.8041 19.6002 64.0098 19.7654 64.4213 19.7654H69.5647C69.9762 19.7654 70.1819 19.6002 70.1819 19.2699V19.1656C70.1819 18.9396 70.0362 18.6136 69.7447 18.1877C69.4533 17.7617 69.2904 17.3314 69.2561 16.8968L68.9218 12.3851C68.7846 10.4727 68.2532 9.09053 67.3273 8.23862C66.4015 7.38672 65.2957 6.96077 64.0098 6.96077C62.2782 6.96077 61.0524 7.61273 60.3323 8.91667V7.69097C60.3323 7.39541 60.2508 7.18243 60.088 7.05204C59.9251 6.92165 59.6808 6.92599 59.355 7.06508L55.7546 8.86451C55.3432 9.07314 55.1374 9.29046 55.1374 9.51648V9.59472C55.1374 9.80334 55.2531 9.99894 55.4846 10.1815C55.7161 10.364 55.9432 10.5814 56.1661 10.8335C56.389 11.0855 56.5004 11.3941 56.5004 11.7592V16.8968C56.5004 17.3314 56.3118 17.766 55.9347 18.2007C55.5575 18.6353 55.3689 18.957 55.3689 19.1656V19.2699C55.3689 19.6002 55.5746 19.7654 55.9861 19.7654H61.541ZM85.6637 18.3309C84.2235 19.2698 82.0718 19.7392 79.2087 19.7392H72.1622C71.7507 19.7392 71.545 19.574 71.545 19.2437V19.1394C71.545 18.9307 71.7164 18.6135 72.0593 18.1875C72.4022 17.7615 72.5737 17.3313 72.5737 16.8966V4.06588C72.5737 3.63123 72.4022 3.20093 72.0593 2.77498C71.7164 2.34903 71.545 2.03174 71.545 1.82311V1.71879C71.545 1.38846 71.7507 1.2233 72.1622 1.2233H79.2858C81.4975 1.2233 83.1734 1.65794 84.3135 2.52724C85.4537 3.39653 86.0237 4.5266 86.0237 5.91747C86.0237 6.89107 85.7537 7.7169 85.2136 8.39495C84.6736 9.07299 83.9492 9.53372 83.0405 9.77712C84.515 9.98575 85.6808 10.516 86.5381 11.3679C87.3953 12.2198 87.8239 13.2717 87.8239 14.5234C87.8239 16.1229 87.1038 17.3921 85.6637 18.3309ZM79.8772 9.04688H78.5914C78.1799 9.04688 77.8456 8.92518 77.5884 8.68177C77.3312 8.43837 77.2027 8.10804 77.2027 7.69078V4.40487C77.2027 3.5008 77.6056 3.04877 78.4114 3.04877H79.1314C80.023 3.04877 80.7302 3.36172 81.2531 3.98761C81.776 4.6135 82.0375 5.48279 82.0375 6.59548C82.0375 7.34307 81.8403 7.93853 81.446 8.38187C81.0517 8.82521 80.5287 9.04688 79.8772 9.04688ZM79.1314 17.9137H80.3659C81.1717 17.9137 81.8017 17.666 82.2561 17.1705C82.7104 16.675 82.9376 16.0186 82.9376 15.2015C82.9376 14.1236 82.5218 13.1326 81.6903 12.2285C80.8588 11.3245 79.7229 10.8724 78.2828 10.8724H77.2027V15.697C77.2027 16.3403 77.3784 16.8706 77.7299 17.2878C78.0813 17.7051 78.5485 17.9137 79.1314 17.9137ZM95.2819 19.7393C95.6934 19.7393 95.8991 19.5742 95.8991 19.2438V19.1395C95.8991 18.9309 95.6719 18.6136 95.2176 18.1876C94.7633 17.7617 94.5361 17.3314 94.5361 16.8968V12.0461C94.5361 10.3771 94.8533 9.54256 95.4876 9.54256C95.7619 9.54256 95.9677 9.6686 96.1048 9.9207C96.242 10.1728 96.332 10.4553 96.3749 10.7683C96.4177 11.0812 96.5763 11.3637 96.8506 11.6158C97.125 11.8679 97.5279 11.994 98.0593 11.994C99.3795 11.994 100.04 11.1768 100.04 9.54256C100.04 8.79497 99.821 8.17777 99.3838 7.69097C98.9466 7.20416 98.3594 6.96076 97.6222 6.96076C95.8391 6.96076 94.6561 7.82136 94.0732 9.54256V7.63881C94.0732 7.34325 94.0046 7.14331 93.8675 7.039C93.7303 6.93468 93.4903 6.94338 93.1474 7.06508L89.5213 8.78627C89.1269 8.9949 88.9298 9.247 88.9298 9.54256V9.62079C88.9298 9.82942 89.0326 10.0207 89.2384 10.1945C89.4441 10.3684 89.6498 10.577 89.8556 10.8204C90.0613 11.0638 90.1642 11.3594 90.1642 11.7071V16.8968C90.1642 17.3314 89.9927 17.7617 89.6498 18.1876C89.3069 18.6136 89.1355 18.9309 89.1355 19.1395V19.2438C89.1355 19.5742 89.3412 19.7393 89.7527 19.7393H95.2819ZM112.564 18.1616C111.226 19.3873 109.606 20.0001 107.703 20.0001C105.714 20.0001 104.03 19.3786 102.65 18.1355C101.27 16.8924 100.58 15.332 100.58 13.4544C100.58 11.5767 101.265 10.025 102.637 8.79931C104.008 7.57361 105.637 6.96076 107.523 6.96076C109.478 6.96076 111.141 7.57796 112.512 8.81235C113.884 10.0467 114.57 11.6115 114.57 13.5065C114.57 15.3842 113.901 16.9359 112.564 18.1616ZM108.243 18.7221C107.763 18.7221 107.313 18.4483 106.893 17.9006C106.473 17.353 106.143 16.6836 105.903 15.8926C105.663 15.1015 105.475 14.3148 105.337 13.5324C105.2 12.7501 105.132 12.072 105.132 11.4983C105.132 10.403 105.26 9.58587 105.517 9.04691C105.775 8.50795 106.203 8.23847 106.803 8.23847C107.42 8.23847 107.982 8.71658 108.488 9.6728C108.993 10.629 109.354 11.6461 109.568 12.724C109.782 13.8019 109.889 14.7321 109.889 15.5144C109.889 17.6529 109.341 18.7221 108.243 18.7221ZM127.66 18.1616C126.323 19.3873 124.702 20.0001 122.799 20.0001C120.811 20.0001 119.126 19.3786 117.746 18.1355C116.366 16.8924 115.676 15.332 115.676 13.4544C115.676 11.5767 116.362 10.025 117.733 8.79931C119.105 7.57361 120.733 6.96076 122.619 6.96076C124.574 6.96076 126.237 7.57796 127.608 8.81235C128.98 10.0467 129.666 11.6115 129.666 13.5065C129.666 15.3842 128.997 16.9359 127.66 18.1616ZM123.339 18.7221C122.859 18.7221 122.409 18.4483 121.989 17.9006C121.569 17.353 121.239 16.6836 120.999 15.8926C120.759 15.1015 120.57 14.3148 120.433 13.5324C120.296 12.7501 120.228 12.072 120.228 11.4983C120.228 10.403 120.356 9.58587 120.613 9.04691C120.87 8.50795 121.299 8.23847 121.899 8.23847C122.516 8.23847 123.078 8.71658 123.584 9.6728C124.089 10.629 124.449 11.6461 124.664 12.724C124.878 13.8019 124.985 14.7321 124.985 15.5144C124.985 17.6529 124.437 18.7221 123.339 18.7221ZM137.715 19.2699C137.715 19.6002 137.509 19.7654 137.098 19.7654H131.543C131.132 19.7654 130.926 19.6002 130.926 19.2699V19.1656C130.926 18.957 131.114 18.6353 131.492 18.2007C131.869 17.766 132.057 17.3314 132.057 16.8968V11.7592C132.057 11.4115 131.942 11.1116 131.71 10.8595C131.479 10.6074 131.252 10.3858 131.029 10.1945C130.806 10.0033 130.694 9.80334 130.694 9.59471V9.51648C130.694 9.29046 130.9 9.07314 131.312 8.86451L135.169 7.06508C135.478 6.92599 135.718 6.92599 135.889 7.06508C136.061 7.20416 136.146 7.41279 136.146 7.69097V8.6298C136.935 7.51711 138.075 6.96076 139.567 6.96076C141.47 6.96076 142.876 7.67358 143.784 9.09922C144.127 8.42117 144.633 7.89525 145.302 7.52146C145.97 7.14766 146.733 6.96076 147.59 6.96076C148.842 6.96076 149.909 7.38672 150.792 8.23862C151.675 9.09052 152.185 10.4901 152.322 12.4373L152.657 16.8968C152.691 17.3314 152.854 17.766 153.145 18.2007C153.437 18.6353 153.583 18.957 153.583 19.1656V19.2699C153.583 19.6002 153.377 19.7654 152.965 19.7654H147.822C147.41 19.7654 147.205 19.6002 147.205 19.2699V19.1656C147.205 18.9744 147.368 18.6614 147.693 18.2268C148.019 17.7921 148.165 17.3488 148.131 16.8968L147.873 12.2808C147.805 10.9769 147.633 10.0511 147.359 9.50344C147.085 8.95578 146.665 8.68196 146.099 8.68196C145.585 8.68196 145.19 8.90797 144.916 9.36C144.642 9.81203 144.504 10.4118 144.504 11.1594C144.556 11.5245 144.582 11.8896 144.582 12.2547V16.8968C144.582 17.3314 144.736 17.766 145.045 18.2007C145.353 18.6353 145.507 18.957 145.507 19.1656V19.2699C145.507 19.6002 145.302 19.7654 144.89 19.7654H139.772C139.361 19.7654 139.155 19.6002 139.155 19.2699V19.1656C139.155 18.957 139.305 18.6353 139.605 18.2007C139.905 17.766 140.055 17.3314 140.055 16.8968V11.9418C140.055 9.76857 139.472 8.68196 138.307 8.68196C137.741 8.68196 137.312 8.90797 137.021 9.36C136.729 9.81203 136.584 10.4118 136.584 11.1594V16.8968C136.584 17.3314 136.772 17.766 137.149 18.2007C137.527 18.6353 137.715 18.957 137.715 19.1656V19.2699Z" fill="white"/>
</svg>
