<?xml version="1.0" encoding="UTF-8"?> <svg xmlns="http://www.w3.org/2000/svg" width="160" height="20" viewBox="0 0 160 20" fill="none"><g clip-path="url(#clip0_204_9667)"><path d="M50.6362 4.67741H40.627V9.11745H48.9876V13.4003H40.627V19.6871H35.9954V0.394531H50.6362V4.67741Z" fill="white"></path><path d="M64.8027 16.6616H55.6179L54.3618 19.6871H49.4554L57.6197 0.394531H62.7616L70.9259 19.6871H66.0195L64.8027 16.6616ZM63.1934 12.8895L60.2103 5.69901L57.1879 12.8895H63.1934Z" fill="white"></path><path d="M86.8629 6.48325H82.3098C82.3098 5.50094 81.1715 4.20429 79.2089 4.20429C77.8351 4.20429 76.1473 4.83297 76.1473 5.93316C76.1473 6.87618 77.4033 7.22981 80.1117 7.93707C83.0948 8.72292 87.3339 9.74452 87.3339 14.0274C87.3339 17.7209 84.1546 19.9998 79.6799 19.9998C73.7137 19.9998 71.2016 15.9134 71.2016 12.8879H75.7548C75.7548 12.8879 76.108 15.9527 79.9154 15.9527C81.9565 15.9527 82.7023 15.0883 82.7023 14.2632C82.7023 13.0451 81.093 12.6129 79.3266 12.1807C76.4613 11.5127 71.4371 10.4125 71.4371 6.12962C71.4371 2.5933 74.852 0 79.2089 0C84.2331 0.0392924 86.8629 3.45773 86.8629 6.48325Z" fill="white"></path><path d="M106.923 4.67666H100.172V19.6864H95.5008V4.67666H88.7496V0.354492H106.923V4.67666Z" fill="white"></path><path d="M114.654 19.6871H110.061V0.394531H114.654V19.6871Z" fill="white"></path><path d="M137.536 19.6871H132.904L123.249 7.86009V19.6871H118.617V0.394531H123.249L132.904 12.1823V0.394531H137.536V19.6871V19.6871Z" fill="white"></path><path d="M159.519 4.28265L155.515 6.32585C154.573 5.10779 153.081 4.43982 150.883 4.43982C147.547 4.43982 145.231 6.79736 145.231 10.0193C145.231 13.0842 147.625 15.7167 150.962 15.7167C153.003 15.7167 154.651 15.0488 155.633 14.1058V12.2197H149.824V8.64411H159.676V15.756C159.519 16.0311 156.536 19.9996 150.962 19.9996C144.642 19.9996 140.599 15.2059 140.599 10.0193C140.599 4.63628 144.956 0.0390625 150.962 0.0390625C154.612 0.0390625 157.595 1.72864 159.519 4.28265Z" fill="white"></path><path d="M6.16247 14.2239H0V0.275132L6.16247 0.23584H6.20173C8.36056 0.23584 10.2054 0.943104 11.5007 2.23975C12.7567 3.49711 13.424 5.22598 13.424 7.1906C13.424 11.277 10.3624 14.2239 6.16247 14.2239ZM3.88589 10.5305C4.63167 10.5305 5.4167 10.5305 6.16247 10.5305C6.39798 10.5305 7.53628 10.5698 8.47831 9.70532C9.4596 8.80159 9.49885 7.54423 9.49885 7.1906C9.49885 6.83697 9.5381 5.97254 8.94933 5.18669C8.08579 3.96862 6.55499 3.92933 6.35873 3.92933C5.53445 3.92933 4.71017 3.92933 3.88589 3.92933C3.88589 6.169 3.88589 8.36938 3.88589 10.5305Z" fill="#DE2B70"></path><path d="M21.1563 14.4594C17.2312 14.4594 14.0518 11.2374 14.0518 7.22958C14.0518 3.26104 17.2704 0.0390625 21.1563 0.0390625C25.0815 0.0390625 28.2608 3.26104 28.2608 7.26887C28.2608 11.2374 25.0815 14.4594 21.1563 14.4594ZM21.1563 3.73255C19.2723 3.73255 17.663 5.30425 17.663 7.22958C17.663 9.15491 19.2723 10.7659 21.1563 10.7659C23.0404 10.7659 24.6105 9.15491 24.6105 7.22958C24.6105 5.34354 23.0404 3.77184 21.1563 3.73255Z" fill="#DE2B70"></path></g><defs><clipPath id="clip0_204_9667"><rect width="160" height="20" fill="white"></rect></clipPath></defs></svg> 