<?xml version="1.0" encoding="UTF-8"?>
<svg xmlns="http://www.w3.org/2000/svg" width="258" height="52" fill="none">
  <g clip-path="url(#a)">
    <path d="M64.572 18.55v15.053h-4.81V18.549h-1.996v-3.664h1.997V12.48c0-2.74 1.7-5.513 5.623-5.513h2.74v4.072H66.24c-1.144 0-1.667.627-1.667 1.739v2.107h3.548v3.664h-3.548zM80.772 19.59c-.737-.737-1.37-1.144-2.554-1.144-1.48 0-3.109 1.112-3.109 3.555v11.614h-4.808V14.342H75v1.848c.924-1.112 2.772-2.075 4.847-2.075 1.888 0 3.219.479 4.55 1.81l-3.626 3.665zM95.13 33.609V31.94c-1.294 1.293-2.515 1.849-4.739 1.849-2.223 0-3.774-.556-4.918-1.7-1.034-1.073-1.59-2.624-1.59-4.33 0-3.07 2.107-5.585 6.586-5.585h4.55v-.963c0-2.107-1.034-3.031-3.587-3.031-1.849 0-2.702.446-3.697 1.59l-3.07-3c1.887-2.074 3.736-2.662 6.954-2.662 5.404 0 8.216 2.294 8.216 6.806v12.687h-4.7l-.006.007zm-.117-8.138h-3.814c-1.738 0-2.701.815-2.701 2.185s.885 2.217 2.772 2.217c1.332 0 2.185-.11 3.032-.924.517-.479.704-1.26.704-2.444v-1.034h.007zM114.696 33.609V21.956c0-2.625-1.668-3.517-3.18-3.517-1.513 0-3.219.886-3.219 3.517v11.653h-4.809V14.335h4.699v1.778c1.261-1.332 3.031-1.997 4.809-1.997 1.926 0 3.477.626 4.55 1.7 1.551 1.55 1.959 3.367 1.959 5.474v12.319h-4.809zM130.821 33.829c-3.845 0-8.622-2.075-8.622-9.876 0-7.802 4.77-9.837 8.622-9.837 2.663 0 4.66.814 6.36 2.591l-3.257 3.258c-1.002-1.073-1.849-1.52-3.109-1.52-1.144 0-2.036.408-2.741 1.261-.743.925-1.072 2.217-1.072 4.253s.329 3.368 1.072 4.292c.705.853 1.59 1.26 2.741 1.26 1.26 0 2.107-.446 3.109-1.519l3.257 3.22c-1.7 1.777-3.697 2.623-6.36 2.623v-.006zM150.464 33.61V21.845c0-2.553-1.629-3.406-3.148-3.406-1.519 0-3.109.885-3.109 3.406v11.763h-4.809V7.271h4.809v8.842c1.293-1.332 2.922-1.997 4.622-1.997 4.214 0 6.437 2.96 6.437 7.032v12.468h-4.809l.007-.007zM158.859 11.039V7.116h4.919v3.923h-4.919zm.078 22.57V14.335h4.809V33.61h-4.809zM173.918 33.829c-3.031 0-5.772-.336-8.215-2.773l3.148-3.148c1.59 1.59 3.665 1.81 5.145 1.81 1.667 0 3.406-.556 3.406-1.997 0-.963-.517-1.629-2.036-1.778l-3.031-.297c-3.478-.33-5.624-1.849-5.624-5.403 0-3.995 3.516-6.14 7.433-6.14 2.999 0 5.514.517 7.362 2.255l-2.96 3c-1.112-.996-2.812-1.294-4.479-1.294-1.926 0-2.741.886-2.741 1.849 0 .704.298 1.519 1.997 1.668l3.032.297c3.807.368 5.733 2.404 5.733 5.662 0 4.253-3.626 6.289-8.176 6.289h.006zM188.378 25.471c0 2.476 1.519 4.292 4.214 4.292 2.107 0 3.148-.594 4.363-1.81l2.922 2.85c-1.959 1.96-3.846 3.032-7.323 3.032-4.551 0-8.913-2.075-8.913-9.876 0-6.289 3.406-9.837 8.396-9.837 5.364 0 8.395 3.923 8.395 9.21v2.146h-12.06l.006-.007zm6.884-5.364c-.517-1.144-1.59-1.997-3.219-1.997-1.629 0-2.702.853-3.219 1.997-.297.704-.407 1.221-.446 2.075h7.323c-.038-.854-.148-1.37-.446-2.075h.007z" fill="#20B6EA"></path>
    <path d="M203.281 11.039V7.116h4.919v3.923h-4.919zm.078 22.57V14.335h4.809V33.61h-4.809zM223.219 33.609V21.956c0-2.625-1.667-3.517-3.18-3.517-1.512 0-3.219.886-3.219 3.517v11.653h-4.808V14.335h4.699v1.778c1.26-1.332 3.031-1.997 4.808-1.997 1.926 0 3.478.626 4.551 1.7 1.551 1.55 1.958 3.367 1.958 5.474v12.319h-4.809zM237.095 18.55v15.053h-4.809V18.549h-1.997v-3.664h1.997V12.48c0-2.74 1.7-5.513 5.623-5.513h2.734v4.072h-1.887c-1.15 0-1.667.627-1.667 1.739v2.107h3.548v3.664h-3.548.006zM255.551 31.463c-1.183 1.26-3.148 2.366-5.992 2.366s-4.77-1.112-5.952-2.366c-1.739-1.81-2.185-3.994-2.185-7.51 0-3.516.446-5.662 2.185-7.472 1.182-1.26 3.108-2.366 5.952-2.366s4.809 1.112 5.992 2.366c1.738 1.81 2.184 3.994 2.184 7.472 0 3.477-.446 5.694-2.184 7.51zm-3.742-12.17c-.556-.556-1.293-.854-2.256-.854-.963 0-1.661.298-2.217.854-.995 1.002-1.112 2.663-1.112 4.66 0 1.997.11 3.697 1.112 4.699.556.555 1.26.853 2.217.853.956 0 1.7-.297 2.256-.853.995-.996 1.111-2.702 1.111-4.7 0-1.996-.11-3.664-1.111-4.66z" fill="#FBB040"></path>
    <path d="M25.673.077C11.492.077 0 11.569 0 25.75c0 8.363 4 15.79 10.193 20.475l4.052-22.117H11.35l.918-5.203h2.94l.181-1.183c.505-2.792 1.564-5.675 3.814-7.614 1.835-1.558 4.227-2.178 6.43-2.178 1.565 0 2.754.24 3.491.569l-1.15 5.39c-.595-.239-1.287-.375-2.114-.375-2.159 0-3.49 1.94-3.904 4.26l-.18 1.137h4.407l-.963 5.203h-4.363L16.204 49.62a25.582 25.582 0 0 0 9.469 1.81c14.18 0 25.672-11.492 25.672-25.673 0-14.18-11.498-25.68-25.672-25.68zm7.924 38.703c.31.252.795.374 1.454.374.44 0 .756-.032.963-.096.2-.065.381-.123.543-.188-.065.847-.252 1.564-.562 2.159a5.034 5.034 0 0 1-1.17 1.5 4.476 4.476 0 0 1-1.597.891 6.043 6.043 0 0 1-1.829.285c-1.409 0-2.598-.446-3.568-1.338-.97-.892-1.454-2.32-1.454-4.292 0-.847.123-1.861.375-3.05l3.193-15.067h6.76l-3.38 15.958a6.698 6.698 0 0 0-.187 1.5c0 .66.155 1.112.472 1.364h-.013zm3.632-22.435a3.66 3.66 0 0 1-2.65 1.08c-1.034 0-1.907-.362-2.63-1.08-.718-.717-1.08-1.596-1.08-2.63 0-1.034.362-1.913 1.08-2.65.717-.737 1.596-1.106 2.63-1.106 1.034 0 1.913.369 2.65 1.106.737.737 1.105 1.616 1.105 2.65 0 1.034-.368 1.906-1.105 2.63z" fill="#20B6EA"></path>
    <path d="M61.616 40.447h-1.803v-.97h4.776v.97h-1.823v5.345H61.61v-5.345h.007zM65.285 39.142h1.157v2.714h.02c.142-.213.336-.394.575-.523.226-.13.504-.2.788-.2.776 0 1.597.517 1.597 1.977V45.8h-1.157v-2.56c0-.659-.24-1.163-.88-1.163-.452 0-.768.304-.891.646a.967.967 0 0 0-.052.35v2.727h-1.157v-6.657zM71.558 43.834c.033.827.673 1.19 1.41 1.19.53 0 .91-.085 1.26-.214l.168.795c-.388.168-.93.291-1.597.291-1.48 0-2.346-.918-2.346-2.314 0-1.26.763-2.45 2.23-2.45s1.965 1.222 1.965 2.217c0 .214-.02.388-.039.485h-3.05zm2.004-.808c0-.42-.181-1.112-.95-1.112-.711 0-1.008.647-1.054 1.112h2.01-.006zM82.042 43.466c0 1.674-1.177 2.43-2.346 2.43-1.287 0-2.282-.892-2.282-2.353 0-1.46.983-2.417 2.36-2.417 1.376 0 2.268.957 2.268 2.34zm-3.445.052c0 .879.44 1.538 1.131 1.538.692 0 1.118-.64 1.118-1.558 0-.717-.317-1.538-1.112-1.538-.795 0-1.144.788-1.144 1.551l.007.007zM89.188 40.17a2.104 2.104 0 0 0-.931-.214c-.802 0-1.067.485-1.067 1.086v.187h2.722v4.564h-1.157v-3.704h-1.558v3.704H86.04v-3.704h-1.68v3.704h-1.157v-3.704h-.621v-.86h.62v-.135c0-.55.162-1.106.57-1.493.29-.278.71-.466 1.279-.466.317 0 .62.097.802.175l-.278.834a1.064 1.064 0 0 0-.479-.123.655.655 0 0 0-.497.2c-.188.194-.246.524-.246.84v.168h1.687v-.22c0-1.227.853-1.977 2.21-1.977.433 0 .931.11 1.21.265l-.272.866v.006zM94.592 45.657c-.24.11-.717.233-1.286.233-1.429 0-2.353-.918-2.353-2.334 0-1.415.93-2.424 2.54-2.424.427 0 .853.09 1.112.207l-.207.866a1.936 1.936 0 0 0-.873-.18c-.879 0-1.402.646-1.396 1.48 0 .937.614 1.473 1.403 1.473.394 0 .679-.084.905-.18l.155.859zM96.77 39.956c0 .343-.253.62-.66.62a.608.608 0 0 1-.633-.62c0-.349.258-.62.646-.62s.64.271.646.62zm-1.222 5.837V41.23h1.157v4.563h-1.157zM100.609 45.793l-.077-.51h-.026c-.278.361-.756.613-1.345.613-.924 0-1.434-.66-1.434-1.357 0-1.15 1.027-1.732 2.708-1.726v-.078c0-.297-.117-.801-.925-.794a2.4 2.4 0 0 0-1.228.342l-.226-.75c.343-.206.937-.407 1.655-.407 1.461 0 1.881.924 1.881 1.92v1.641c0 .414.019.815.071 1.1h-1.041l-.013.006zm-.155-2.237c-.814-.013-1.59.162-1.59.854 0 .446.291.659.66.659a.942.942 0 0 0 .904-.634.815.815 0 0 0 .033-.252v-.633l-.007.006zM102.895 39.142h1.156v6.65h-1.156v-6.65zM108.12 41.23l.479 2.068c.109.484.213.982.297 1.48h.019c.091-.491.239-1.002.369-1.467l.601-2.075h.931l.568 2.023c.143.53.272 1.028.362 1.519h.02c.071-.491.181-.995.303-1.526l.505-2.023h1.131l-1.429 4.564h-1.073l-.549-1.855a13.469 13.469 0 0 1-.343-1.461h-.019a11.835 11.835 0 0 1-.349 1.46l-.582 1.862h-1.073l-1.35-4.563h1.176l.006-.006zM115.234 43.834c.032.827.672 1.19 1.409 1.19.53 0 .911-.085 1.261-.214l.168.795c-.388.168-.931.291-1.597.291-1.48 0-2.346-.918-2.346-2.314 0-1.26.763-2.45 2.23-2.45s1.965 1.222 1.965 2.217c0 .214-.02.388-.039.485h-3.051zm2.004-.808c0-.42-.181-1.112-.95-1.112-.711 0-1.009.647-1.054 1.112h2.01-.006zM119.312 45.792c.02-.303.039-.814.039-1.28v-5.37h1.151v2.72h.019c.278-.445.776-.73 1.454-.73 1.112 0 1.907.925 1.901 2.314 0 1.642-1.041 2.456-2.075 2.456-.588 0-1.105-.226-1.435-.788h-.019l-.052.685h-.983v-.007zm1.19-1.887c0 .097.013.188.032.272.123.465.524.808 1.015.808.724 0 1.157-.576 1.157-1.5 0-.801-.388-1.46-1.151-1.46-.465 0-.898.335-1.021.84-.019.09-.039.187-.039.297v.737l.007.006zM124.873 44.733c.252.155.75.33 1.164.33.51 0 .737-.214.737-.511 0-.298-.188-.466-.75-.666-.892-.304-1.267-.789-1.261-1.332 0-.801.666-1.428 1.733-1.428.504 0 .943.123 1.208.272l-.226.807a2.064 2.064 0 0 0-.963-.264c-.401 0-.64.2-.64.484 0 .285.22.427.795.64.827.291 1.215.718 1.215 1.39 0 .834-.646 1.428-1.855 1.428-.549 0-1.053-.13-1.389-.317l.232-.84v.007zM130.156 39.956c0 .343-.252.62-.659.62a.608.608 0 0 1-.634-.62c0-.349.259-.62.647-.62.387 0 .639.271.646.62zm-1.222 5.837V41.23h1.157v4.563h-1.157zM132.745 39.924v1.306h1.099v.86h-1.099v2.01c0 .555.148.84.588.84.2 0 .343-.026.446-.052l.026.879c-.175.064-.478.116-.84.116-.427 0-.776-.142-.989-.375-.246-.265-.362-.678-.362-1.28v-2.145h-.653v-.86h.653V40.19l1.131-.272v.007zM135.562 43.834c.033.827.672 1.19 1.409 1.19.53 0 .912-.085 1.261-.214l.168.795c-.388.168-.931.291-1.597.291-1.48 0-2.346-.918-2.346-2.314 0-1.26.763-2.45 2.23-2.45s1.965 1.222 1.965 2.217c0 .214-.02.388-.039.485h-3.051zm2.004-.808c0-.42-.181-1.112-.95-1.112-.711 0-1.008.647-1.054 1.112h2.01-.006zM146.05 43.466c0 1.674-1.177 2.43-2.347 2.43-1.286 0-2.281-.892-2.281-2.353 0-1.46.982-2.417 2.359-2.417s2.269.957 2.269 2.34zm-3.439.052c0 .879.44 1.538 1.131 1.538.692 0 1.118-.64 1.118-1.558 0-.717-.316-1.538-1.111-1.538-.795 0-1.144.788-1.144 1.551l.006.007zM147.226 45.792V42.09h-.621v-.86h.621v-.194c0-.588.162-1.182.556-1.557.336-.324.795-.44 1.196-.44.303 0 .549.052.73.11l-.078.886a1.369 1.369 0 0 0-.491-.084c-.569 0-.763.478-.763 1.04v.24h.996v.859h-.989v3.703h-1.157zM153.088 40.447h-1.803v-.97h4.777v.97h-1.823v5.345h-1.157v-5.345h.006zM156.758 39.142h1.157v2.714h.019c.142-.213.336-.394.575-.523.227-.13.505-.2.789-.2.776 0 1.596.517 1.596 1.977V45.8h-1.157v-2.56c0-.659-.239-1.163-.879-1.163-.452 0-.769.304-.892.646a.985.985 0 0 0-.051.35v2.727h-1.157v-6.657zM163.019 43.834c.033.827.672 1.19 1.409 1.19.53 0 .912-.085 1.261-.214l.168.795c-.388.168-.931.291-1.597.291-1.48 0-2.346-.918-2.346-2.314 0-1.26.763-2.45 2.23-2.45s1.965 1.222 1.965 2.217c0 .214-.02.388-.039.485h-3.051zm2.01-.808c0-.42-.181-1.112-.95-1.112-.711 0-1.002.647-1.053 1.112h2.01-.007zM169.215 39.478h3.652v.95h-2.495v1.745h2.32v.944h-2.32v2.682h-1.157V39.478zM173.824 42.697c0-.614-.013-1.06-.039-1.468h1.002l.045.867h.033c.226-.64.756-.97 1.247-.97.11 0 .181 0 .271.026v1.086c-.097-.02-.2-.032-.336-.032-.549 0-.93.348-1.034.872a1.982 1.982 0 0 0-.032.35v2.365h-1.157v-3.096zM179.741 45.793l-.078-.51h-.026c-.278.361-.756.613-1.344.613-.924 0-1.441-.66-1.441-1.357 0-1.15 1.027-1.732 2.708-1.726v-.078c0-.297-.117-.801-.925-.794-.446 0-.917.142-1.228.342l-.226-.75c.343-.206.937-.407 1.655-.407 1.461 0 1.881.924 1.881 1.92v1.641c0 .414.019.815.071 1.1h-1.041l-.006.006zm-.155-2.237c-.815-.013-1.59.162-1.59.854 0 .446.29.659.659.659a.942.942 0 0 0 .905-.634.814.814 0 0 0 .032-.252v-.633l-.006.006zM182.031 42.587c0-.53-.019-.963-.039-1.358H183l.059.686h.026c.2-.356.698-.789 1.454-.789.795 0 1.622.51 1.622 1.952v2.708h-1.157v-2.572c0-.653-.239-1.15-.872-1.15-.459 0-.776.322-.899.678a1.245 1.245 0 0 0-.052.368v2.683h-1.157v-3.206h.007zM190.83 45.657c-.239.11-.717.233-1.286.233-1.428 0-2.353-.918-2.353-2.334 0-1.415.931-2.424 2.541-2.424.426 0 .853.09 1.111.207l-.207.866a1.934 1.934 0 0 0-.872-.18c-.879 0-1.403.646-1.396 1.48 0 .937.614 1.473 1.402 1.473.395 0 .679-.084.905-.18l.155.859zM191.789 39.142h1.157v2.714h.019c.143-.213.336-.394.576-.523.226-.13.504-.2.788-.2.776 0 1.597.517 1.597 1.977V45.8h-1.157v-2.56c0-.659-.239-1.163-.879-1.163-.453 0-.769.304-.892.646a.963.963 0 0 0-.052.35v2.727h-1.157v-6.657zM198.465 39.956c0 .343-.246.62-.66.62a.608.608 0 0 1-.633-.62c0-.349.258-.62.646-.62s.64.271.647.62zm-1.222 5.837V41.23h1.157v4.563h-1.157zM199.682 44.733c.252.155.75.33 1.163.33.511 0 .737-.214.737-.511 0-.298-.187-.466-.75-.666-.892-.304-1.266-.789-1.26-1.332 0-.801.666-1.428 1.732-1.428.504 0 .944.123 1.209.272l-.226.807a2.068 2.068 0 0 0-.963-.264c-.401 0-.64.2-.64.484 0 .285.219.427.795.64.827.291 1.215.718 1.215 1.39 0 .834-.646 1.428-1.855 1.428-.55 0-1.054-.13-1.39-.317l.233-.84v.007zM204.551 43.834c.032.827.672 1.19 1.409 1.19.53 0 .911-.085 1.26-.214l.168.795c-.388.168-.931.291-1.596.291-1.481 0-2.347-.918-2.347-2.314 0-1.26.763-2.45 2.23-2.45s1.965 1.222 1.965 2.217c0 .214-.019.388-.039.485h-3.05zm2.003-.808c0-.42-.181-1.112-.95-1.112-.711 0-1.002.647-1.053 1.112h2.01-.007zM214.271 42.994h-2.378v1.855h2.663v.95h-3.814v-6.315h3.678v.95h-2.521v1.623h2.379V43l-.007-.007zM216.387 41.23l.537.86c.148.245.284.47.413.704h.026c.136-.259.265-.492.401-.724l.504-.84h1.254l-1.525 2.184 1.551 2.372h-1.306l-.556-.911a12.044 12.044 0 0 1-.413-.737h-.026c-.129.259-.265.491-.407.743l-.53.912h-1.267l1.577-2.327-1.525-2.236h1.292zM220.344 39.142h1.157v2.714h.019c.142-.213.336-.394.575-.523.227-.13.504-.2.789-.2.775 0 1.596.517 1.596 1.977V45.8h-1.157v-2.56c0-.659-.239-1.163-.879-1.163-.452 0-.769.304-.892.646a.985.985 0 0 0-.051.35v2.727h-1.157v-6.657zM227.019 39.956c0 .343-.245.62-.659.62a.608.608 0 0 1-.633-.62c0-.349.258-.62.646-.62s.64.271.646.62zm-1.221 5.837V41.23h1.157v4.563h-1.157zM228.256 45.792c.02-.303.039-.814.039-1.28v-5.37h1.151v2.72h.019c.278-.445.776-.73 1.454-.73 1.112 0 1.907.925 1.901 2.314 0 1.642-1.041 2.456-2.075 2.456-.588 0-1.105-.226-1.435-.788h-.019l-.052.685h-.989l.006-.007zm1.19-1.887c0 .097.013.188.026.272.122.465.523.808 1.021.808.724 0 1.157-.576 1.157-1.5 0-.801-.388-1.46-1.151-1.46-.465 0-.898.335-1.021.84-.019.09-.039.187-.039.297v.737l.007.006zM235.086 39.956c0 .343-.246.62-.66.62a.608.608 0 0 1-.633-.62c0-.349.259-.62.646-.62.388 0 .64.271.647.62zm-1.222 5.837V41.23h1.157v4.563h-1.157zM237.678 39.924v1.306h1.099v.86h-1.099v2.01c0 .555.149.84.589.84.2 0 .342-.026.446-.052l.025.879c-.174.064-.478.116-.84.116-.426 0-.775-.142-.989-.375-.245-.265-.362-.678-.362-1.28v-2.145h-.652v-.86h.652V40.19l1.131-.272v.007zM240.965 39.956c0 .343-.246.62-.66.62a.608.608 0 0 1-.633-.62c0-.349.258-.62.646-.62s.64.271.647.62zm-1.222 5.837V41.23h1.157v4.563h-1.157zM246.569 43.466c0 1.674-1.176 2.43-2.346 2.43-1.286 0-2.282-.892-2.282-2.353 0-1.46.983-2.417 2.36-2.417 1.376 0 2.268.957 2.268 2.34zm-3.445.052c0 .879.44 1.538 1.131 1.538.692 0 1.118-.64 1.118-1.558 0-.717-.316-1.538-1.111-1.538-.795 0-1.144.788-1.144 1.551l.006.007zM247.613 42.587c0-.53-.019-.963-.039-1.358h1.009l.058.686h.026c.2-.356.698-.789 1.454-.789.795 0 1.622.51 1.622 1.952v2.708h-1.157v-2.572c0-.653-.239-1.15-.872-1.15-.459 0-.776.322-.899.678a1.245 1.245 0 0 0-.052.368v2.683h-1.156v-3.206h.006zM253.014 44.733c.252.155.75.33 1.163.33.511 0 .737-.214.737-.511 0-.298-.187-.466-.75-.666-.892-.304-1.266-.789-1.26-1.332 0-.801.666-1.428 1.732-1.428.504 0 .944.123 1.209.272l-.226.807a2.068 2.068 0 0 0-.963-.264c-.401 0-.64.2-.64.484 0 .285.22.427.795.64.827.291 1.215.718 1.215 1.39 0 .834-.646 1.428-1.855 1.428-.55 0-1.054-.13-1.39-.317l.233-.84v.007z" fill="#231F20"></path>
  </g>
  <defs>
    <clipPath id="a">
      <path fill="#fff" transform="translate(0 .077)" d="M0 0h257.734v51.339H0z"></path>
    </clipPath>
  </defs>
</svg>
