<?xml version="1.0" encoding="UTF-8"?>
<svg xmlns="http://www.w3.org/2000/svg" width="259" height="53" fill="none">
  <g clip-path="url(#a)">
    <path d="M64.672 19.242v15.076h-4.816V19.242h-2v-3.67h2v-2.409c0-2.745 1.702-5.522 5.631-5.522h2.745v4.079h-1.89c-1.146 0-1.67.627-1.67 1.74v2.111h3.554v3.67h-3.554zM80.9 20.284c-.737-.738-1.372-1.146-2.556-1.146-1.482 0-3.114 1.113-3.114 3.56v11.633h-4.816V15.027h4.706v1.852c.926-1.114 2.777-2.078 4.855-2.078 1.89 0 3.224.479 4.557 1.812l-3.631 3.67zM95.28 34.324v-1.67c-1.295 1.295-2.519 1.851-4.746 1.851-2.227 0-3.78-.556-4.926-1.702-1.036-1.075-1.592-2.628-1.592-4.337 0-3.075 2.11-5.593 6.596-5.593h4.557v-.965c0-2.11-1.036-3.036-3.593-3.036-1.85 0-2.705.447-3.702 1.593l-3.075-3.004c1.89-2.078 3.741-2.667 6.965-2.667 5.412 0 8.228 2.298 8.228 6.817v12.707h-4.706l-.007.006zm-.117-8.15h-3.82c-1.74 0-2.705.816-2.705 2.188 0 1.373.886 2.22 2.777 2.22 1.333 0 2.188-.11 3.036-.925.518-.48.705-1.262.705-2.447v-1.036h.007zM114.869 34.324V22.653c0-2.628-1.67-3.522-3.185-3.522-1.514 0-3.223.887-3.223 3.522v11.671h-4.816V15.021h4.706v1.78c1.262-1.333 3.036-2 4.816-2 1.929 0 3.482.628 4.557 1.702 1.554 1.554 1.961 3.373 1.961 5.483v12.338h-4.816zM131.022 34.544c-3.851 0-8.635-2.077-8.635-9.89 0-7.814 4.777-9.853 8.635-9.853 2.667 0 4.667.815 6.37 2.596l-3.263 3.262c-1.003-1.074-1.851-1.521-3.113-1.521-1.146 0-2.039.408-2.745 1.262-.744.926-1.075 2.22-1.075 4.26 0 2.039.331 3.372 1.075 4.298.706.854 1.592 1.262 2.745 1.262 1.262 0 2.11-.446 3.113-1.521l3.263 3.224c-1.703 1.78-3.703 2.628-6.37 2.628v-.007zM150.7 34.325V22.543c0-2.557-1.632-3.411-3.153-3.411-1.521 0-3.114.887-3.114 3.411v11.782h-4.816V7.945h4.816v8.856c1.295-1.333 2.926-2 4.629-2 4.22 0 6.447 2.965 6.447 7.043v12.487h-4.816l.007-.006zM159.105 11.72V7.79h4.927v3.93h-4.927zm.078 22.604V15.021h4.816v19.303h-4.816zM174.189 34.545c-3.036 0-5.781-.337-8.228-2.777l3.152-3.153c1.593 1.593 3.671 1.813 5.153 1.813 1.67 0 3.412-.557 3.412-2 0-.965-.518-1.632-2.039-1.78l-3.036-.299c-3.483-.33-5.632-1.85-5.632-5.411 0-4 3.521-6.15 7.444-6.15 3.004 0 5.522.518 7.373 2.26l-2.965 3.003c-1.113-.997-2.815-1.295-4.486-1.295-1.929 0-2.744.887-2.744 1.852 0 .705.298 1.52 2 1.67l3.036.298c3.813.369 5.742 2.408 5.742 5.67 0 4.26-3.632 6.299-8.189 6.299h.007zM188.667 26.175c0 2.48 1.521 4.298 4.22 4.298 2.111 0 3.153-.595 4.37-1.813l2.926 2.855c-1.962 1.962-3.852 3.036-7.334 3.036-4.558 0-8.927-2.078-8.927-9.891 0-6.299 3.411-9.852 8.409-9.852 5.373 0 8.409 3.929 8.409 9.224v2.15h-12.08l.007-.007zm6.894-5.373c-.518-1.146-1.593-2-3.224-2-1.631 0-2.706.854-3.224 2-.297.706-.407 1.223-.446 2.078h7.334c-.039-.855-.149-1.372-.447-2.078h.007z" fill="#20B6EA"></path>
    <path d="M203.594 11.72V7.79h4.926v3.93h-4.926zm.077 22.604V15.021h4.817v19.303h-4.817zM223.565 34.324V22.653c0-2.628-1.671-3.522-3.185-3.522-1.515 0-3.224.887-3.224 3.522v11.671h-4.816V15.021h4.706v1.78c1.262-1.333 3.036-2 4.816-2 1.929 0 3.483.628 4.557 1.702 1.554 1.554 1.962 3.373 1.962 5.483v12.338h-4.816zM237.461 19.242v15.076h-4.816V19.242h-2v-3.67h2v-2.409c0-2.745 1.702-5.522 5.632-5.522h2.738v4.079h-1.89c-1.153 0-1.671.627-1.671 1.74v2.111h3.554v3.67h-3.554.007zM255.944 32.175c-1.185 1.263-3.153 2.37-6.001 2.37-2.848 0-4.777-1.114-5.962-2.37-1.741-1.812-2.188-4-2.188-7.522 0-3.521.447-5.67 2.188-7.483 1.185-1.262 3.114-2.37 5.962-2.37s4.816 1.114 6.001 2.37c1.741 1.813 2.188 4 2.188 7.483 0 3.483-.447 5.703-2.188 7.522zm-3.748-12.19c-.557-.556-1.295-.854-2.26-.854-.964 0-1.663.298-2.22.855-.997 1.003-1.113 2.667-1.113 4.667s.11 3.703 1.113 4.706c.557.557 1.262.855 2.22.855.958 0 1.703-.298 2.26-.855.997-.997 1.113-2.706 1.113-4.706 0-2-.11-3.67-1.113-4.667z" fill="#FBB040"></path>
    <path d="M25.712.74C11.51.74 0 12.25 0 26.454c0 8.376 4.007 15.814 10.208 20.507l4.06-22.151h-2.9l.918-5.212h2.946l.181-1.184c.505-2.797 1.567-5.684 3.82-7.626 1.838-1.56 4.233-2.181 6.44-2.181 1.567 0 2.758.24 3.496.57l-1.152 5.398c-.596-.24-1.289-.375-2.117-.375-2.162 0-3.496 1.942-3.91 4.266l-.181 1.139h4.414l-.964 5.211h-4.37l-4.66 25.544a25.622 25.622 0 0 0 9.483 1.812c14.202 0 25.712-11.51 25.712-25.712S39.908.741 25.712.741zm7.936 38.763c.311.252.797.376 1.457.376.44 0 .757-.033.964-.098.201-.064.382-.123.544-.187-.065.848-.252 1.566-.563 2.162-.31.595-.706 1.1-1.172 1.502a4.481 4.481 0 0 1-1.599.893 6.05 6.05 0 0 1-1.832.285c-1.41 0-2.602-.447-3.573-1.34-.97-.894-1.456-2.324-1.456-4.299 0-.848.123-1.864.375-3.055l3.198-15.09h6.771l-3.386 15.983a6.708 6.708 0 0 0-.187 1.502c0 .66.155 1.114.472 1.366h-.013zm3.638-22.469c-.738.719-1.618 1.081-2.654 1.081-1.035 0-1.91-.362-2.634-1.08-.719-.72-1.081-1.6-1.081-2.636 0-1.035.362-1.916 1.08-2.654.72-.738 1.6-1.107 2.635-1.107 1.036 0 1.916.37 2.654 1.107.738.738 1.107 1.619 1.107 2.654 0 1.036-.369 1.91-1.107 2.635z" fill="#20B6EA"></path>
    <path d="M61.708 41.173h-1.806v-.97h4.784v.97h-1.825v5.354H61.7v-5.354h.007zM65.383 39.865h1.159v2.72h.019a1.61 1.61 0 0 1 .576-.525c.227-.13.505-.2.79-.2.777 0 1.599.517 1.599 1.98v2.693h-1.159V43.97c0-.66-.24-1.166-.88-1.166-.453 0-.77.305-.894.648a.97.97 0 0 0-.052.35v2.731h-1.158V39.865zM71.665 44.565c.033.829.674 1.191 1.412 1.191.53 0 .913-.084 1.262-.213l.168.796c-.388.168-.932.291-1.599.291-1.482 0-2.35-.919-2.35-2.317 0-1.263.764-2.454 2.234-2.454s1.968 1.224 1.968 2.22c0 .214-.02.39-.04.486h-3.055zm2.007-.809c0-.42-.181-1.113-.951-1.113-.712 0-1.01.647-1.056 1.113h2.014-.007zM82.162 44.197c0 1.676-1.178 2.434-2.35 2.434-1.288 0-2.285-.894-2.285-2.357s.984-2.42 2.363-2.42 2.272.957 2.272 2.343zm-3.45.051c0 .88.44 1.541 1.133 1.541.692 0 1.12-.64 1.12-1.56 0-.719-.318-1.54-1.114-1.54s-1.145.79-1.145 1.553l.006.006zM89.323 40.895a2.108 2.108 0 0 0-.932-.214c-.803 0-1.069.486-1.069 1.088v.188h2.726v4.57h-1.159v-3.71h-1.56v3.71H86.17v-3.71h-1.683v3.71H83.33v-3.71h-.622v-.86h.622v-.136c0-.55.161-1.107.57-1.496.29-.278.711-.466 1.28-.466.318 0 .622.097.803.175l-.278.835a1.067 1.067 0 0 0-.479-.123.656.656 0 0 0-.498.2c-.188.195-.246.525-.246.842v.169h1.69v-.22c0-1.23.854-1.981 2.213-1.981.434 0 .932.11 1.21.265l-.271.867v.007zM94.734 46.39c-.24.11-.718.234-1.288.234-1.43 0-2.356-.92-2.356-2.337 0-1.418.932-2.428 2.544-2.428.427 0 .854.091 1.113.207l-.207.868a1.94 1.94 0 0 0-.874-.181c-.88 0-1.404.647-1.398 1.482 0 .939.615 1.476 1.405 1.476.395 0 .68-.084.906-.181l.155.86zM96.916 40.681c0 .344-.253.622-.66.622a.609.609 0 0 1-.635-.621c0-.35.259-.622.647-.622.389 0 .641.272.648.621zm-1.224 5.846v-4.57h1.159v4.57h-1.159zM100.762 46.527l-.078-.511h-.025c-.279.362-.758.615-1.347.615-.926 0-1.437-.66-1.437-1.36 0-1.152 1.03-1.735 2.712-1.728v-.078c0-.298-.116-.803-.925-.796-.447 0-.92.142-1.23.343l-.227-.75c.343-.208.939-.409 1.657-.409 1.463 0 1.884.926 1.884 1.923v1.644c0 .414.019.816.071 1.1h-1.042l-.013.007zm-.155-2.24c-.816-.013-1.593.162-1.593.855 0 .446.292.66.66.66.46 0 .797-.298.907-.634a.816.816 0 0 0 .032-.253v-.634l-.006.006zM103.055 39.865h1.158v6.661h-1.158v-6.66zM108.286 41.956l.479 2.072c.11.486.214.984.298 1.482h.019c.091-.492.24-1.003.369-1.469l.602-2.078h.933l.569 2.026c.143.531.272 1.03.363 1.521h.019c.071-.492.181-.996.304-1.527l.505-2.026h1.133l-1.43 4.57h-1.075l-.55-1.858c-.136-.48-.246-.906-.343-1.463h-.02c-.097.563-.213 1.01-.349 1.463l-.583 1.864h-1.075l-1.352-4.57h1.178l.006-.007zM115.412 44.565c.032.829.673 1.191 1.411 1.191.531 0 .913-.084 1.262-.213l.168.796c-.388.168-.932.291-1.598.291-1.483 0-2.35-.919-2.35-2.317 0-1.263.764-2.454 2.233-2.454s1.968 1.224 1.968 2.22c0 .214-.02.39-.039.486h-3.055zm2.006-.809c0-.42-.181-1.113-.951-1.113-.712 0-1.01.647-1.055 1.113h2.013-.007zM119.496 46.526c.02-.304.039-.815.039-1.281v-5.38h1.152v2.726h.02c.278-.447.776-.732 1.456-.732 1.114 0 1.91.926 1.903 2.318 0 1.644-1.042 2.46-2.078 2.46-.589 0-1.107-.227-1.437-.79h-.019l-.052.686h-.984v-.007zm1.191-1.89c0 .097.013.188.033.272.123.466.524.81 1.016.81.725 0 1.159-.577 1.159-1.502 0-.803-.389-1.463-1.153-1.463-.466 0-.899.336-1.022.841-.02.09-.039.188-.039.298v.738l.006.006zM125.061 45.465c.253.156.751.33 1.165.33.512 0 .738-.213.738-.51 0-.299-.187-.467-.751-.668-.893-.304-1.268-.79-1.262-1.333 0-.803.667-1.43 1.735-1.43.505 0 .945.122 1.21.271l-.226.81a2.068 2.068 0 0 0-.965-.266c-.401 0-.64.2-.64.485s.22.428.796.641c.828.292 1.217.719 1.217 1.392 0 .835-.648 1.43-1.858 1.43-.55 0-1.055-.129-1.392-.317l.233-.841v.006zM130.349 40.681c0 .344-.252.622-.66.622a.608.608 0 0 1-.634-.621c0-.35.259-.622.647-.622s.641.272.647.621zm-1.223 5.846v-4.57h1.159v4.57h-1.159zM132.947 40.65v1.307h1.1v.86h-1.1v2.014c0 .556.149.841.589.841.201 0 .343-.025.447-.051l.025.88c-.174.065-.479.117-.841.117-.427 0-.777-.143-.991-.376-.246-.265-.362-.68-.362-1.282v-2.149h-.654v-.86h.654v-1.037l1.133-.271v.006zM135.771 44.565c.032.829.673 1.191 1.411 1.191.531 0 .913-.084 1.262-.213l.169.796c-.389.168-.932.291-1.599.291-1.483 0-2.35-.919-2.35-2.317 0-1.263.764-2.454 2.233-2.454 1.47 0 1.968 1.224 1.968 2.22 0 .214-.019.39-.039.486h-3.055zm2.007-.809c0-.42-.182-1.113-.952-1.113-.712 0-1.01.647-1.055 1.113h2.013-.006zM146.272 44.197c0 1.676-1.179 2.434-2.35 2.434-1.288 0-2.285-.894-2.285-2.357s.984-2.42 2.362-2.42c1.379 0 2.273.957 2.273 2.343zm-3.444.051c0 .88.44 1.541 1.133 1.541.692 0 1.12-.64 1.12-1.56 0-.719-.318-1.54-1.114-1.54s-1.146.79-1.146 1.553l.007.006zM147.45 46.526v-3.709h-.622v-.86h.622v-.195c0-.59.161-1.185.556-1.56.337-.324.796-.44 1.198-.44.304 0 .55.051.731.11l-.077.887a1.38 1.38 0 0 0-.492-.084c-.57 0-.764.479-.764 1.042v.24h.997v.86h-.991v3.71h-1.158zM153.318 41.173h-1.806v-.97h4.784v.97h-1.826v5.354h-1.159v-5.354h.007zM156.992 39.865h1.159v2.72h.019c.143-.214.337-.396.576-.525.227-.13.505-.2.79-.2.777 0 1.599.517 1.599 1.98v2.693h-1.159V43.97c0-.66-.239-1.166-.88-1.166-.453 0-.77.305-.893.648a.966.966 0 0 0-.052.35v2.731h-1.159V39.865zM163.267 44.565c.032.829.673 1.191 1.411 1.191.531 0 .913-.084 1.263-.213l.168.796c-.389.168-.932.291-1.599.291-1.482 0-2.35-.919-2.35-2.317 0-1.263.764-2.454 2.233-2.454 1.47 0 1.968 1.224 1.968 2.22 0 .214-.019.39-.038.486h-3.056zm2.013-.809c0-.42-.181-1.113-.951-1.113-.712 0-1.004.647-1.055 1.113h2.013-.007zM169.473 40.202h3.657v.952h-2.499V42.9h2.324v.946h-2.324v2.686h-1.158V40.202zM174.09 43.426c0-.615-.013-1.061-.039-1.47h1.003l.045.868h.033c.226-.64.757-.97 1.249-.97.11 0 .181 0 .272.025v1.088a1.651 1.651 0 0 0-.337-.033c-.55 0-.932.35-1.035.874-.02.104-.033.227-.033.35v2.369h-1.158v-3.1zM180.015 46.527l-.078-.511h-.026c-.278.362-.757.615-1.346.615-.926 0-1.444-.66-1.444-1.36 0-1.152 1.029-1.735 2.712-1.728v-.078c0-.298-.116-.803-.925-.796-.447 0-.919.142-1.23.343l-.227-.75c.343-.208.939-.409 1.657-.409 1.463 0 1.884.926 1.884 1.923v1.644c0 .414.02.816.071 1.1h-1.042l-.006.007zm-.156-2.24c-.815-.013-1.592.162-1.592.855 0 .446.291.66.66.66.46 0 .796-.298.906-.634a.817.817 0 0 0 .033-.253v-.634l-.007.006zM182.308 43.316c0-.53-.019-.964-.038-1.36h1.009l.059.687h.026c.2-.356.699-.79 1.456-.79.796 0 1.625.512 1.625 1.955v2.712h-1.159v-2.576c0-.654-.239-1.152-.874-1.152-.459 0-.777.324-.9.68a1.25 1.25 0 0 0-.051.369v2.686h-1.159v-3.21h.006zM191.121 46.39c-.239.11-.718.234-1.288.234-1.431 0-2.356-.92-2.356-2.337 0-1.418.932-2.428 2.544-2.428.427 0 .854.091 1.113.207l-.207.868a1.943 1.943 0 0 0-.874-.181c-.88 0-1.405.647-1.398 1.482 0 .939.615 1.476 1.404 1.476.395 0 .68-.084.907-.181l.155.86zM192.082 39.865h1.159v2.72h.019c.143-.214.337-.396.576-.525.227-.13.505-.2.79-.2.777 0 1.599.517 1.599 1.98v2.693h-1.159V43.97c0-.66-.239-1.166-.88-1.166-.453 0-.77.305-.893.648a.966.966 0 0 0-.052.35v2.731h-1.159V39.865zM198.767 40.681c0 .344-.246.622-.66.622a.608.608 0 0 1-.634-.621c0-.35.259-.622.647-.622s.641.272.647.621zm-1.223 5.846v-4.57h1.159v4.57h-1.159zM199.983 45.465c.253.156.751.33 1.165.33.512 0 .738-.213.738-.51 0-.299-.188-.467-.751-.668-.893-.304-1.268-.79-1.262-1.333 0-.803.667-1.43 1.735-1.43.505 0 .945.122 1.21.271l-.226.81a2.068 2.068 0 0 0-.965-.266c-.401 0-.641.2-.641.485s.221.428.797.641c.828.292 1.217.719 1.217 1.392 0 .835-.648 1.43-1.858 1.43-.55 0-1.055-.129-1.392-.317l.233-.841v.006zM204.857 44.565c.032.829.673 1.191 1.411 1.191.531 0 .913-.084 1.262-.213l.169.796c-.389.168-.932.291-1.599.291-1.483 0-2.35-.919-2.35-2.317 0-1.263.764-2.454 2.233-2.454 1.47 0 1.968 1.224 1.968 2.22 0 .214-.019.39-.039.486h-3.055zm2.007-.809c0-.42-.182-1.113-.952-1.113-.712 0-1.003.647-1.055 1.113h2.013-.006zM214.601 43.724h-2.382v1.858h2.667v.951h-3.82V40.21h3.684v.951h-2.525v1.625h2.382v.945l-.006-.006zM216.721 41.956l.538.861c.149.246.285.473.414.706h.026c.136-.259.265-.492.401-.725l.505-.842h1.256l-1.528 2.188 1.554 2.376h-1.308l-.556-.913a12.104 12.104 0 0 1-.415-.737h-.026c-.129.259-.265.492-.407.744l-.531.913h-1.269l1.579-2.33-1.527-2.24h1.294zM220.68 39.865h1.158v2.72h.02c.142-.214.336-.396.576-.525.227-.13.505-.2.79-.2.776 0 1.599.517 1.599 1.98v2.693h-1.159V43.97c0-.66-.24-1.166-.88-1.166-.454 0-.771.305-.894.648a.966.966 0 0 0-.052.35v2.731h-1.158V39.865zM227.365 40.681c0 .344-.246.622-.66.622a.61.61 0 0 1-.635-.621c0-.35.259-.622.648-.622.388 0 .641.272.647.621zm-1.223 5.846v-4.57h1.158v4.57h-1.158zM228.604 46.526c.02-.304.039-.815.039-1.281v-5.38h1.152v2.726h.02c.278-.447.776-.732 1.456-.732 1.114 0 1.91.926 1.903 2.318 0 1.644-1.042 2.46-2.078 2.46-.589 0-1.107-.227-1.437-.79h-.019l-.052.686h-.99l.006-.007zm1.191-1.89c0 .097.013.188.026.272.123.466.524.81 1.023.81.725 0 1.159-.577 1.159-1.502 0-.803-.389-1.463-1.153-1.463-.466 0-.899.336-1.022.841-.02.09-.039.188-.039.298v.738l.006.006zM235.447 40.681c0 .344-.246.622-.66.622a.61.61 0 0 1-.635-.621c0-.35.259-.622.648-.622.388 0 .641.272.647.621zm-1.223 5.846v-4.57h1.158v4.57h-1.158zM238.041 40.65v1.307h1.1v.86h-1.1v2.014c0 .556.148.841.589.841.2 0 .343-.025.446-.051l.026.88c-.175.065-.479.117-.841.117-.428 0-.777-.143-.991-.376-.246-.265-.362-.68-.362-1.282v-2.149h-.654v-.86h.654v-1.037l1.133-.271v.006zM241.33 40.681c0 .344-.246.622-.66.622a.61.61 0 0 1-.635-.621c0-.35.259-.622.647-.622.389 0 .641.272.648.621zm-1.224 5.846v-4.57h1.159v4.57h-1.159zM246.951 44.197c0 1.676-1.178 2.434-2.35 2.434-1.288 0-2.285-.894-2.285-2.357s.984-2.42 2.363-2.42 2.272.957 2.272 2.343zm-3.45.051c0 .88.44 1.541 1.133 1.541.693 0 1.12-.64 1.12-1.56 0-.719-.317-1.54-1.114-1.54-.796 0-1.145.79-1.145 1.553l.006.006zM247.992 43.316c0-.53-.019-.964-.039-1.36h1.01l.058.687h.026c.201-.356.699-.79 1.457-.79.796 0 1.624.512 1.624 1.955v2.712h-1.158v-2.576c0-.654-.24-1.152-.874-1.152-.46 0-.777.324-.9.68a1.248 1.248 0 0 0-.052.369v2.686h-1.159v-3.21h.007zM253.405 45.465c.252.156.751.33 1.165.33.512 0 .738-.213.738-.51 0-.299-.188-.467-.751-.668-.893-.304-1.269-.79-1.262-1.333 0-.803.667-1.43 1.735-1.43.505 0 .945.122 1.21.271l-.226.81a2.075 2.075 0 0 0-.965-.266c-.401 0-.641.2-.641.485s.22.428.796.641c.829.292 1.217.719 1.217 1.392 0 .835-.647 1.43-1.857 1.43-.551 0-1.056-.129-1.392-.317l.233-.841v.006z" fill="#fff"></path>
  </g>
  <defs>
    <clipPath id="a">
      <path fill="#fff" transform="translate(0 .74)" d="M0 0h258.13v51.418H0z"></path>
    </clipPath>
  </defs>
</svg>
