<svg width="144" height="32" fill="none" xmlns="http://www.w3.org/2000/svg"><g clip-path="url(#clip0_3194_34141)" fill-rule="evenodd" clip-rule="evenodd"><path d="M4.43 32c.852 0 1.668-.109 2.448-.326a5.35 5.35 0 002.075-1.103c.603-.518 1.081-1.212 1.435-2.082.353-.87.53-1.957.53-3.262V10.096a36.17 36.17 0 00-.873-.264 5.406 5.406 0 00-1.529-.202c-.79 0-1.425.165-1.903.497-.478.331-.717.9-.717 1.709V25.63c0 .87-.23 1.46-.687 1.77-.457.311-.987.467-1.59.467a5.63 5.63 0 01-1.31-.156c-.437-.103-.79-.227-1.061-.372L0 31.037c.104.062.307.145.608.248.302.104.655.213 1.06.327.406.114.848.207 1.327.28.478.072.956.108 1.435.108zm16.911-6.09a9.183 9.183 0 003.416-.637 8.87 8.87 0 002.807-1.755 8.14 8.14 0 001.888-2.641c.457-1.015.686-2.123.686-3.325 0-1.2-.229-2.309-.686-3.324a8.142 8.142 0 00-1.888-2.64 8.871 8.871 0 00-2.807-1.756 9.182 9.182 0 00-3.416-.637c-1.227 0-2.37.212-3.431.637a8.917 8.917 0 00-2.792 1.755 8.142 8.142 0 00-1.887 2.641c-.458 1.015-.687 2.123-.687 3.324 0 1.202.23 2.31.687 3.325a8.14 8.14 0 001.887 2.64 8.87 8.87 0 002.792 1.756c1.06.425 2.204.637 3.431.637zm0-4.474a3.53 3.53 0 01-1.466-.295 3.742 3.742 0 01-1.154-.808 3.46 3.46 0 01-.764-1.227 4.431 4.431 0 01-.266-1.554c0-.559.089-1.077.266-1.553a3.46 3.46 0 01.764-1.227 3.74 3.74 0 011.154-.808 3.53 3.53 0 011.466-.295c.52 0 1.003.098 1.45.295.448.197.838.466 1.17.808.333.342.588.75.765 1.227.176.476.265.994.265 1.553 0 .56-.089 1.078-.265 1.554a3.46 3.46 0 01-.765 1.227 3.688 3.688 0 01-1.17.808 3.56 3.56 0 01-1.45.295zM39.157 32c1.31 0 2.522-.181 3.634-.544a7.643 7.643 0 002.886-1.677c.81-.756 1.445-1.72 1.903-2.89.457-1.17.686-2.563.686-4.179v-4.63c0-1.366-.13-2.495-.39-3.386-.26-.89-.64-1.667-1.139-2.33a7.58 7.58 0 00-3.01-2.361c-1.216-.539-2.542-.808-3.977-.808-1.29 0-2.47.202-3.54.606-1.072.403-1.992.968-2.761 1.693a7.786 7.786 0 00-1.81 2.594c-.436 1.005-.654 2.118-.654 3.34s.187 2.315.561 3.278c.374.963.905 1.776 1.59 2.44a6.803 6.803 0 002.45 1.506c.946.342 1.98.513 3.103.513a6.5 6.5 0 001.747-.218c.52-.145.972-.31 1.357-.497.385-.186.697-.373.936-.56.24-.186.41-.33.515-.434v.342c0 .787-.115 1.444-.343 1.973a3.485 3.485 0 01-.952 1.304 3.616 3.616 0 01-1.466.73 7.537 7.537 0 01-1.856.218 11.47 11.47 0 01-1.856-.14 15.604 15.604 0 01-1.497-.31 10.813 10.813 0 01-1.045-.327 3.546 3.546 0 01-.5-.217l-1.372 3.573c.125.083.38.202.764.357.385.155.874.31 1.466.466.593.156 1.274.29 2.044.404.77.114 1.611.171 2.526.171zm.53-11.06c-1.04 0-1.892-.29-2.557-.87-.666-.58-.998-1.461-.998-2.642a3.677 3.677 0 01.998-2.548c.312-.33.686-.59 1.123-.776.436-.187.915-.28 1.435-.28 1.019 0 1.866.337 2.542 1.01.676.673 1.014 1.538 1.014 2.594 0 1.057-.338 1.906-1.014 2.548-.676.642-1.523.963-2.542.963zM57.536 32c1.31 0 2.522-.181 3.634-.544a7.643 7.643 0 002.886-1.677c.81-.756 1.445-1.72 1.902-2.89.458-1.17.687-2.563.687-4.179v-4.63c0-1.366-.13-2.495-.39-3.386-.26-.89-.64-1.667-1.139-2.33a7.58 7.58 0 00-3.01-2.361c-1.217-.539-2.542-.808-3.977-.808-1.29 0-2.47.202-3.54.606-1.072.403-1.992.968-2.761 1.693a7.786 7.786 0 00-1.81 2.594c-.436 1.005-.655 2.118-.655 3.34s.187 2.315.562 3.278c.374.963.904 1.776 1.59 2.44a6.803 6.803 0 002.45 1.506c.946.342 1.98.513 3.103.513a6.5 6.5 0 001.747-.218c.52-.145.972-.31 1.357-.497a5.28 5.28 0 00.936-.56c.239-.186.41-.33.514-.434v.342c0 .787-.114 1.444-.343 1.973a3.485 3.485 0 01-.951 1.304 3.616 3.616 0 01-1.466.73 7.537 7.537 0 01-1.856.218 11.46 11.46 0 01-1.856-.14 15.604 15.604 0 01-1.498-.31 10.813 10.813 0 01-1.045-.327 3.511 3.511 0 01-.499-.217l-1.372 3.573c.124.083.38.202.764.357.385.155.873.31 1.466.466.593.156 1.274.29 2.043.404.77.114 1.612.171 2.527.171zm.53-11.06c-1.04 0-1.892-.29-2.558-.87-.665-.58-.998-1.461-.998-2.642a3.677 3.677 0 01.998-2.548c.312-.33.687-.59 1.123-.776.437-.187.915-.28 1.435-.28 1.02 0 1.867.337 2.543 1.01.675.673 1.013 1.538 1.013 2.594 0 1.057-.338 1.906-1.013 2.548-.676.642-1.524.963-2.543.963zm18.472 4.97a9.183 9.183 0 003.415-.637 8.87 8.87 0 002.808-1.755 8.14 8.14 0 001.887-2.641c.458-1.015.686-2.123.686-3.325 0-1.2-.228-2.309-.686-3.324a8.142 8.142 0 00-1.887-2.64 8.871 8.871 0 00-2.808-1.756 9.182 9.182 0 00-3.415-.637c-1.227 0-2.371.212-3.432.637a8.917 8.917 0 00-2.792 1.755 8.142 8.142 0 00-1.887 2.641c-.457 1.015-.686 2.123-.686 3.324 0 1.202.229 2.31.686 3.325a8.14 8.14 0 001.887 2.64 8.893 8.893 0 002.792 1.756c1.06.425 2.205.637 3.432.637zm0-4.474a3.53 3.53 0 01-1.467-.295 3.742 3.742 0 01-1.154-.808 3.46 3.46 0 01-.764-1.227 4.431 4.431 0 01-.265-1.554c0-.559.088-1.077.265-1.553a3.46 3.46 0 01.764-1.227 3.74 3.74 0 011.154-.808 3.53 3.53 0 011.467-.295c.52 0 1.003.098 1.45.295.447.197.837.466 1.17.808.333.342.587.75.764 1.227.177.476.265.994.265 1.553 0 .56-.088 1.078-.265 1.554a3.46 3.46 0 01-.764 1.227 3.688 3.688 0 01-1.17.808 3.56 3.56 0 01-1.45.295z" fill="#0F121A"/><path d="M12.164 2.951c-.33-1.935-2.165-3.2-4.117-2.91C3.912.66 1.695 4.9 4.133 4.539c1.083-.16 1.92-.084 2.51.231a.346.346 0 01-.165.653h-.42a.222.222 0 00-.174.36c.129.161.24.285.335.372a3.572 3.572 0 003.024.897 3.555 3.555 0 002.92-4.1z" fill="#51AD5F"/></g><path d="M97.334 9v17" stroke="#0F121A" stroke-miterlimit="10"/><path d="M109.333 23.59V10.5h4.577c.912 0 1.664.158 2.257.473.592.311 1.033.73 1.323 1.26.29.523.434 1.105.434 1.744 0 .563-.1 1.027-.3 1.394a2.336 2.336 0 01-.78.87 3.56 3.56 0 01-1.042.472v.128c.401.025.804.166 1.208.422.405.255.744.622 1.017 1.1.272.477.409 1.06.409 1.75 0 .657-.149 1.247-.448 1.771-.298.524-.769.94-1.412 1.247-.644.306-1.481.46-2.512.46h-4.731zm1.586-1.405h3.145c1.035 0 1.77-.2 2.205-.601.439-.405.658-.895.658-1.47 0-.444-.113-.853-.339-1.228a2.442 2.442 0 00-.965-.907c-.417-.23-.912-.345-1.483-.345h-3.221v4.55zm0-5.932h2.94a2.9 2.9 0 001.291-.281c.388-.188.695-.452.921-.793.23-.34.345-.742.345-1.202 0-.575-.2-1.063-.601-1.463-.401-.405-1.035-.608-1.905-.608h-2.991v4.347zm10.926-5.753v13.09h-1.509V10.5h1.509zm6.251 13.296c-.886 0-1.664-.212-2.333-.633-.665-.422-1.185-1.012-1.56-1.771-.37-.758-.556-1.645-.556-2.659 0-1.023.186-1.916.556-2.678.375-.763.895-1.355 1.56-1.777.669-.422 1.447-.633 2.333-.633.886 0 1.662.21 2.327.633.669.422 1.189 1.014 1.559 1.777.375.762.563 1.655.563 2.678 0 1.014-.188 1.9-.563 2.659-.37.759-.89 1.349-1.559 1.77-.665.422-1.441.634-2.327.634zm0-1.356c.673 0 1.227-.172 1.662-.517.435-.346.756-.8.965-1.362a5.208 5.208 0 00.313-1.828c0-.656-.104-1.268-.313-1.835a3.091 3.091 0 00-.965-1.374c-.435-.35-.989-.524-1.662-.524-.673 0-1.227.175-1.662.524-.434.35-.756.808-.965 1.374a5.262 5.262 0 00-.313 1.835c0 .656.104 1.266.313 1.828.209.563.531 1.016.965 1.362.435.345.989.517 1.662.517zm10.215 5.037c-.729 0-1.355-.093-1.879-.281-.525-.183-.961-.426-1.311-.729a3.975 3.975 0 01-.824-.958l1.201-.844c.137.179.309.383.518.613.209.235.494.437.857.608.366.174.845.262 1.438.262.792 0 1.447-.192 1.962-.576.516-.383.774-.984.774-1.802v-1.994h-.128c-.111.178-.269.4-.473.664-.201.26-.49.492-.87.697-.375.2-.882.3-1.521.3-.793 0-1.504-.187-2.135-.562-.626-.375-1.123-.92-1.489-1.636-.362-.716-.544-1.586-.544-2.608 0-1.006.177-1.882.531-2.627.354-.75.846-1.33 1.477-1.74.63-.412 1.359-.62 2.186-.62.639 0 1.146.107 1.521.32.379.21.669.448.869.716.205.265.362.482.473.652h.154v-1.56h1.457v10.1c0 .844-.192 1.53-.575 2.058a3.276 3.276 0 01-1.534 1.17c-.639.252-1.351.377-2.135.377zm-.051-5.395c.605 0 1.116-.138 1.534-.415.417-.277.735-.676.952-1.195.217-.52.326-1.143.326-1.867 0-.707-.106-1.332-.319-1.873-.214-.54-.529-.965-.946-1.272-.418-.307-.934-.46-1.547-.46-.64 0-1.172.162-1.598.486-.422.324-.74.758-.953 1.304a5.036 5.036 0 00-.313 1.815c0 .682.107 1.285.32 1.81.217.519.537.928.958 1.226.427.294.955.441 1.586.441z" fill="#000"/><defs><clipPath id="clip0_3194_34141"><path fill="#fff" d="M0 0h85.333v32H0z"/></clipPath></defs></svg>