<svg width="182" height="32" viewBox="0 0 182 32" fill="none" xmlns="http://www.w3.org/2000/svg">
<path d="M26.0376 0H5.95956C2.67207 0.00935281 0.00935281 2.67207 0 5.95956V26.0404C0.00935281 29.3279 2.67207 31.9906 5.95956 32H26.0376C29.3251 31.9906 31.9878 29.3279 31.9972 26.0404V5.96807C31.9925 2.67726 29.3284 0.00937223 26.0376 0ZM3.30614 5.95956C3.3077 4.49522 4.49522 3.30897 5.95956 3.30897H11.9957L3.30614 11.9957V5.95956ZM3.30614 16.6868L16.6868 3.30897H26.3356L3.29762 26.3469L3.30614 16.6868ZM5.64739 28.691L8.82299 25.5211L11.9957 28.691H5.64739ZM16.6839 28.691L11.1671 23.1742L15.9915 18.3498L26.3498 28.6967L16.6839 28.691ZM28.691 26.3498L18.3441 16.0085L28.691 5.68996V26.3498Z" fill="white"/>
<path d="M46.2578 25.5425V6.84471H50.1309V15.232L58.3045 6.84471H63.0324L54.004 15.7395L63.4598 25.5425H58.2778L50.1309 16.7812V25.5425H46.2578Z" fill="white"/>
<path d="M66.4585 9.96991C65.8887 9.96991 65.399 9.76513 64.9894 9.35556C64.5798 8.94599 64.375 8.45628 64.375 7.88645C64.375 7.31661 64.5798 6.8269 64.9894 6.41733C65.399 6.00776 65.8887 5.80298 66.4585 5.80298C67.0283 5.80298 67.5181 6.00776 67.9276 6.41733C68.3372 6.8269 68.542 7.31661 68.542 7.88645C68.542 8.45628 68.3372 8.94599 67.9276 9.35556C67.5181 9.76513 67.0283 9.96991 66.4585 9.96991ZM68.3016 11.626V25.5425H64.6422V11.626H68.3016Z" fill="white"/>
<path d="M74.8228 6.04338V25.5425H71.1634V6.84471L74.8228 6.04338Z" fill="white"/>
<path d="M77.0436 18.5976C77.0436 17.5826 77.2306 16.6388 77.6046 15.7662C77.9963 14.8759 78.5216 14.1101 79.1805 13.4691C79.8572 12.8102 80.6496 12.2938 81.5578 11.9198C82.466 11.5459 83.4365 11.3589 84.4693 11.3589C85.5021 11.3589 86.4726 11.5459 87.3808 11.9198C88.289 12.2938 89.0725 12.8102 89.7314 13.4691C90.4081 14.1101 90.9334 14.8759 91.3074 15.7662C91.6991 16.6388 91.895 17.5826 91.895 18.5976C91.895 19.6126 91.6991 20.5653 91.3074 21.4557C90.9334 22.3283 90.4081 23.0851 89.7314 23.7261C89.0725 24.3672 88.289 24.8747 87.3808 25.2487C86.4726 25.6226 85.5021 25.8096 84.4693 25.8096C83.4365 25.8096 82.466 25.6226 81.5578 25.2487C80.6496 24.8747 79.8572 24.3672 79.1805 23.7261C78.5216 23.0851 77.9963 22.3283 77.6046 21.4557C77.2306 20.5653 77.0436 19.6126 77.0436 18.5976ZM84.4693 22.631C85.5378 22.631 86.4459 22.2392 87.1939 21.4557C87.9418 20.6722 88.3157 19.7195 88.3157 18.5976C88.3157 17.4579 87.9418 16.4963 87.1939 15.7128C86.4459 14.9293 85.5378 14.5375 84.4693 14.5375C83.4009 14.5375 82.4927 14.9293 81.7448 15.7128C80.9969 16.4963 80.6229 17.4579 80.6229 18.5976C80.6229 19.7195 80.9969 20.6722 81.7448 21.4557C82.4927 22.2392 83.4009 22.631 84.4693 22.631Z" fill="white"/>
<path d="M95.3074 21.4557C95.9128 21.4557 96.4292 21.6694 96.8566 22.0968C97.284 22.5241 97.4977 23.0406 97.4977 23.646C97.4977 24.2336 97.284 24.7412 96.8566 25.1685C96.4292 25.5959 95.9128 25.8096 95.3074 25.8096C94.7197 25.8096 94.2122 25.5959 93.7848 25.1685C93.3574 24.7412 93.1438 24.2336 93.1438 23.646C93.1438 23.0406 93.3574 22.5241 93.7848 22.0968C94.2122 21.6694 94.7197 21.4557 95.3074 21.4557Z" fill="white"/>
<path d="M100.228 25.5425V6.84471H104.101V14.3505H112.702V6.84471H116.575V25.5425H112.702V17.9031H104.101V25.5425H100.228Z" fill="white"/>
<path d="M132.208 23.8063C131.353 24.5008 130.472 25.0083 129.564 25.3288C128.673 25.6493 127.676 25.8096 126.572 25.8096C125.521 25.8096 124.533 25.6226 123.607 25.2487C122.699 24.8747 121.906 24.3672 121.23 23.7261C120.571 23.0851 120.045 22.3283 119.654 21.4557C119.28 20.5653 119.093 19.6126 119.093 18.5976C119.093 17.6004 119.271 16.6655 119.627 15.7929C120.001 14.9026 120.508 14.1368 121.15 13.4958C121.791 12.8369 122.547 12.3205 123.42 11.9465C124.31 11.5726 125.254 11.3856 126.251 11.3856C127.231 11.3856 128.139 11.5815 128.976 11.9732C129.831 12.3472 130.561 12.8636 131.166 13.5225C131.789 14.1814 132.27 14.9738 132.609 15.8998C132.965 16.808 133.143 17.7963 133.143 18.8647V19.8263H122.779C123.028 20.6989 123.509 21.4023 124.221 21.9365C124.934 22.4707 125.771 22.7378 126.732 22.7378C127.338 22.7378 127.907 22.6399 128.442 22.444C128.976 22.2481 129.43 21.9721 129.804 21.616L132.208 23.8063ZM126.171 14.404C125.334 14.404 124.613 14.6622 124.008 15.1786C123.402 15.6772 122.984 16.3539 122.752 17.2086H129.564C129.332 16.3895 128.905 15.7217 128.281 15.2053C127.676 14.6711 126.973 14.404 126.171 14.404Z" fill="white"/>
<path d="M139.74 25.7829C138.244 25.7829 137.024 25.3911 136.081 24.6076C135.137 23.8063 134.665 22.7734 134.665 21.5091C134.665 20.1914 135.172 19.1585 136.187 18.4106C137.202 17.6627 138.6 17.2888 140.381 17.2888C140.951 17.2888 141.521 17.3333 142.091 17.4223C142.66 17.5114 143.221 17.6449 143.773 17.823V16.8347C143.773 16.0333 143.524 15.4279 143.025 15.0183C142.527 14.6087 141.797 14.404 140.835 14.404C140.248 14.404 139.606 14.5019 138.912 14.6978C138.235 14.8759 137.461 15.1608 136.588 15.5525L135.253 12.8547C136.339 12.3561 137.389 11.9822 138.404 11.7328C139.437 11.4835 140.452 11.3589 141.45 11.3589C143.319 11.3589 144.771 11.813 145.803 12.7212C146.854 13.6115 147.379 14.8759 147.379 16.5141V25.5425H143.773V24.5809C143.186 24.9905 142.563 25.2932 141.904 25.4891C141.263 25.6849 140.541 25.7829 139.74 25.7829ZM138.164 21.429C138.164 21.9632 138.396 22.3906 138.859 22.7111C139.322 23.0138 139.936 23.1652 140.702 23.1652C141.307 23.1652 141.859 23.094 142.358 22.9515C142.874 22.7912 143.346 22.5687 143.773 22.2837V20.2003C143.328 20.0222 142.856 19.8975 142.358 19.8263C141.877 19.7373 141.369 19.6928 140.835 19.6928C139.998 19.6928 139.339 19.853 138.859 20.1736C138.396 20.4763 138.164 20.8948 138.164 21.429Z" fill="white"/>
<path d="M153.808 6.04338V25.5425H150.149V6.84471L153.808 6.04338Z" fill="white"/>
<path d="M158.567 21.616V14.6978H155.709V11.626H158.567V8.07342L162.226 7.24538V11.626H166.179V14.6978H162.226V20.868C162.226 21.5269 162.369 21.9899 162.654 22.257C162.938 22.5241 163.437 22.6577 164.149 22.6577C164.488 22.6577 164.808 22.6399 165.111 22.6043C165.414 22.5508 165.743 22.4618 166.099 22.3372V25.3288C165.708 25.4535 165.236 25.5514 164.684 25.6226C164.132 25.7117 163.66 25.7562 163.268 25.7562C161.719 25.7562 160.543 25.4089 159.742 24.7144C158.959 24.0021 158.567 22.9693 158.567 21.616Z" fill="white"/>
<path d="M167.991 25.5425V6.84471L171.651 6.04338V12.7212C172.185 12.276 172.773 11.9376 173.414 11.7061C174.072 11.4746 174.785 11.3589 175.55 11.3589C177.153 11.3589 178.471 11.8753 179.504 12.9081C180.537 13.941 181.053 15.2676 181.053 16.8881V25.5425H177.394V17.4223C177.394 16.5498 177.126 15.8464 176.592 15.3121C176.076 14.7779 175.381 14.5108 174.509 14.5108C173.903 14.5108 173.351 14.6355 172.853 14.8848C172.372 15.1163 171.971 15.4546 171.651 15.8998V25.5425H167.991Z" fill="white"/>
</svg>
