<?xml version="1.0" encoding="UTF-8"?>
<svg xmlns="http://www.w3.org/2000/svg" width="258" height="24" viewBox="0 0 258 24" fill="none">
  <path d="M19.4787 0H4.45905C3.2773 0.00281025 2.14475 0.474603 1.30912 1.31219C0.473496 2.14977 0.0028037 3.28497 0 4.46948L0 19.5305C0.0028037 20.715 0.473496 21.8502 1.30912 22.6878C2.14475 23.5254 3.2773 23.9972 4.45905 24H19.4787C20.6604 23.9972 21.793 23.5254 22.6286 22.6878C23.4643 21.8502 23.9349 20.715 23.9377 19.5305V4.47574C23.9373 3.28994 23.4675 2.15275 22.6316 1.31367C21.7956 0.474597 20.6617 0.002155 19.4787 0V0ZM2.47309 4.46948C2.47342 3.94164 2.68276 3.43552 3.05513 3.06228C3.4275 2.68904 3.93244 2.4792 4.45905 2.47887H8.97431L2.47309 8.99531V4.46948ZM2.47309 12.5133L12.4841 2.47887H19.7035L2.46684 19.7559L2.47309 12.5133ZM4.22798 21.5149L6.60115 19.1362L8.97431 21.5149H4.22798ZM12.4841 21.5149L8.35604 17.3772L11.9658 13.759L19.716 21.5211L12.4841 21.5149ZM21.4647 19.7621L13.7206 12.0063L21.4647 4.26917V19.7621Z" fill="#072C31"></path>
  <path d="M34.6104 19.1547V5.13281H37.5081V11.4239L43.6221 5.13281H47.1569L40.4059 11.8057L47.4754 19.1547H43.5972L37.5019 12.582V19.1547H34.6104Z" fill="#072C31"></path>
  <path d="M49.7239 7.47452C49.3112 7.47013 48.9166 7.30384 48.6248 7.0113C48.3329 6.71877 48.167 6.32327 48.1626 5.90958C48.161 5.65153 48.2231 5.39709 48.3434 5.16892C48.4636 4.94075 48.6383 4.74592 48.8519 4.60179C49.0654 4.45767 49.3112 4.36871 49.5674 4.34284C49.8236 4.31698 50.0821 4.355 50.3201 4.45354C50.558 4.55208 50.7679 4.70806 50.9312 4.90761C51.0944 5.10715 51.2059 5.34406 51.2557 5.59725C51.3055 5.85043 51.2921 6.11202 51.2166 6.35874C51.1411 6.60545 51.0059 6.82963 50.8231 7.0113C50.6819 7.1606 50.5112 7.27886 50.322 7.3586C50.1328 7.43834 49.9291 7.47782 49.7239 7.47452ZM51.0979 8.72022V19.1553H48.3625V8.72022H51.0979Z" fill="#072C31"></path>
  <path d="M55.982 4.53223V19.1551H53.2466V5.13317L55.982 4.53223Z" fill="#072C31"></path>
  <path d="M57.6435 13.9467C57.6355 13.218 57.778 12.4955 58.0619 11.8247C58.34 11.1794 58.7409 10.5947 59.2423 10.1032C59.7553 9.60399 60.3596 9.20865 61.0221 8.93892C62.4216 8.37974 63.9818 8.37974 65.3813 8.93892C66.0397 9.20584 66.6384 9.60166 67.1424 10.1032C67.6539 10.6035 68.0605 11.2013 68.3383 11.8613C68.6161 12.5213 68.7594 13.2304 68.7599 13.9467C68.7659 14.6832 68.6169 15.4127 68.3227 16.0876C68.0503 16.7304 67.6484 17.3101 67.1424 17.7902C66.6355 18.2821 66.0371 18.6692 65.3813 18.9295C63.9818 19.4887 62.4216 19.4887 61.0221 18.9295C60.3645 18.6616 59.7613 18.2755 59.2423 17.7902C58.7249 17.2954 58.3156 16.6983 58.0404 16.0367C57.7652 15.3751 57.6301 14.6634 57.6435 13.9467ZM63.1955 16.9702C63.5778 16.976 63.957 16.9003 64.308 16.7482C64.659 16.596 64.9737 16.3708 65.2314 16.0876C65.7934 15.4992 66.0682 14.7856 66.0682 13.9467C66.0682 13.0892 65.7872 12.3693 65.2314 11.7809C64.6756 11.1924 63.9948 10.8982 63.1955 10.8982C62.8131 10.8924 62.4339 10.9681 62.0829 11.1203C61.7319 11.2724 61.4172 11.4976 61.1595 11.7809C60.5975 12.3693 60.3227 13.0892 60.3227 13.9467C60.3227 14.7856 60.6037 15.5054 61.1595 16.0876C61.7153 16.6697 62.3961 16.9702 63.1955 16.9702Z" fill="#072C31"></path>
  <path d="M71.3071 16.0881C71.5231 16.0859 71.7373 16.1275 71.9369 16.2103C72.1366 16.2931 72.3174 16.4155 72.4687 16.5701C72.621 16.7205 72.742 16.8998 72.8246 17.0976C72.9072 17.2953 72.9497 17.5075 72.9497 17.7219C72.9497 17.9363 72.9072 18.1485 72.8246 18.3462C72.742 18.5439 72.621 18.7233 72.4687 18.8737C72.3181 19.0293 72.1374 19.1523 71.9376 19.2352C71.7379 19.3181 71.5233 19.3591 71.3071 19.3557C70.8801 19.3492 70.4724 19.1764 70.1705 18.8737C69.8685 18.571 69.696 18.1624 69.6896 17.7344C69.6868 17.5178 69.728 17.3029 69.8107 17.1027C69.8934 16.9026 70.0158 16.7214 70.1705 16.5701C70.3159 16.4148 70.4922 16.2917 70.688 16.2087C70.8837 16.1257 71.0946 16.0846 71.3071 16.0881Z" fill="#072C31"></path>
  <path d="M74.9858 19.1547V5.13281H77.8836V10.7604H84.3161V5.13281H87.2139V19.1547H84.3161V13.427H77.8836V19.1547H74.9858Z" fill="#072C31"></path>
  <path d="M98.9113 17.8535C97.735 18.851 96.2364 19.3851 94.6958 19.3558C93.213 19.3718 91.7811 18.8134 90.6989 17.7971C89.9402 17.0324 89.4222 16.0612 89.209 15.0041C88.9959 13.947 89.097 12.8504 89.4999 11.8503C89.7647 11.2086 90.1507 10.6241 90.6365 10.1289C91.1197 9.63132 91.6973 9.23547 92.3352 8.96458C93.0056 8.68351 93.7256 8.54086 94.4523 8.54518C95.155 8.53786 95.8505 8.68755 96.4882 8.98336C97.1091 9.25208 97.6666 9.64879 98.1244 10.1477C98.6027 10.6619 98.9704 11.2692 99.2049 11.9317C99.4774 12.6404 99.613 13.3945 99.6045 14.1539V14.8738H91.848C92.019 15.5091 92.3999 16.0674 92.9285 16.4575C93.4593 16.8582 94.0901 17.0585 94.8083 17.0585C95.2444 17.0601 95.6776 16.986 96.0885 16.8394C96.4666 16.7049 96.8131 16.4939 97.1065 16.2197L98.9113 17.8535ZM94.3961 10.805C93.8038 10.7926 93.2277 10.9999 92.7786 11.3871C92.3227 11.7627 92.0104 12.2697 91.8418 12.9082H96.9379C96.7802 12.3197 96.4442 11.7948 95.9761 11.4059C95.544 11.0128 94.9796 10.7981 94.3961 10.805Z" fill="#072C31"></path>
  <path d="M104.55 19.3364C103.433 19.3364 102.521 19.0422 101.815 18.4538C101.109 17.8529 100.753 17.0767 100.753 16.1314C100.753 15.1424 101.134 14.3662 101.89 13.809C102.646 13.2519 103.695 12.9702 105.025 12.9702C105.454 12.9693 105.882 13.0028 106.305 13.0704C106.733 13.1394 107.154 13.2398 107.567 13.3709V12.6322C107.567 12.0313 107.38 11.5743 107.005 11.2676C106.63 10.9608 106.087 10.8044 105.369 10.8044C104.882 10.8126 104.399 10.8863 103.932 11.0234C103.337 11.1872 102.756 11.4007 102.196 11.6619L101.197 9.64003C101.954 9.28272 102.745 9.00174 103.557 8.80122C104.303 8.61667 105.069 8.5221 105.837 8.51953C107.236 8.51953 108.323 8.85965 109.097 9.53987C109.884 10.2076 110.277 11.1549 110.277 12.3818V19.1549H107.579V18.435C107.152 18.7354 106.68 18.9657 106.18 19.1173C105.65 19.2678 105.101 19.3416 104.55 19.3364ZM103.37 16.0688C103.37 16.4695 103.545 16.7887 103.888 17.0328C104.232 17.2582 104.694 17.3709 105.269 17.3709C105.686 17.3745 106.103 17.3197 106.505 17.2081C106.881 17.0925 107.239 16.9239 107.567 16.7073V15.1424C107.225 15.0083 106.869 14.9138 106.505 14.8607C106.13 14.7916 105.75 14.758 105.369 14.7605C104.744 14.7605 104.251 14.8795 103.888 15.1236C103.545 15.3552 103.37 15.6682 103.37 16.0688Z" fill="#072C31"></path>
  <path d="M115.073 4.53223V19.1551H112.338V5.13317L115.073 4.53223Z" fill="#072C31"></path>
  <path d="M118.633 16.2129V11.0236H116.497V8.71998H118.633V6.05331L121.368 5.43359V8.71998H124.329V11.0236H121.368V15.6496C121.368 16.1441 121.474 16.4884 121.687 16.6887C121.899 16.889 122.274 16.9891 122.805 16.9891C123.045 16.99 123.284 16.9774 123.523 16.9516C123.774 16.9065 124.02 16.8395 124.26 16.7513V18.9923C123.914 19.0987 123.558 19.1721 123.198 19.2114C122.848 19.2735 122.492 19.307 122.136 19.3115C120.975 19.3115 120.101 19.0486 119.501 18.5291C118.926 17.997 118.633 17.227 118.633 16.2129Z" fill="#072C31"></path>
  <path d="M125.685 19.1551V5.13317L128.42 4.53223V9.54005C128.812 9.21112 129.258 8.95274 129.738 8.77636C130.252 8.59753 130.792 8.50859 131.336 8.51345C132.536 8.51345 133.522 8.90155 134.297 9.67777C135.071 10.454 135.458 11.4493 135.458 12.6637V19.1551H132.723V13.0643C132.723 12.407 132.523 11.8812 132.123 11.4806C131.736 11.08 131.218 10.8796 130.562 10.8796C130.133 10.8741 129.71 10.9706 129.326 11.1613C128.965 11.3333 128.655 11.5965 128.426 11.925V19.1551H125.685Z" fill="#072C31"></path>
  <path d="M150.835 9.0411H153.208V7.12749C153.208 6.14637 153.476 5.39061 154.012 4.8602C154.548 4.32978 155.318 4.06458 156.323 4.06458C156.565 4.063 156.806 4.07637 157.046 4.10464C157.259 4.13092 157.468 4.1781 157.671 4.24549V5.57569C157.466 5.51403 157.257 5.46367 157.046 5.42483C156.84 5.38944 156.631 5.37248 156.422 5.37413C155.832 5.37413 155.393 5.51852 155.105 5.8073C154.818 6.09609 154.674 6.5495 154.673 7.16755V9.0411H157.67V10.3106H154.673V19.1369H153.206V10.3106H150.833L150.835 9.0411Z" fill="#072C31"></path>
  <path d="M158.237 14.0794C158.233 13.3741 158.37 12.6751 158.64 12.0237C158.894 11.4006 159.266 10.8328 159.735 10.3517C160.213 9.87001 160.782 9.48833 161.408 9.22881C162.034 8.96929 162.706 8.83711 163.383 8.83994C164.07 8.83562 164.75 8.97283 165.382 9.24307C165.992 9.50279 166.545 9.87938 167.01 10.3517C167.48 10.8327 167.852 11.4006 168.106 12.0237C168.643 13.3483 168.643 14.8305 168.106 16.1551C167.852 16.7784 167.48 17.3464 167.01 17.8277C166.545 18.3 165.992 18.6765 165.382 18.9357C164.75 19.206 164.07 19.3432 163.383 19.3388C162.706 19.3414 162.034 19.2092 161.408 18.9498C160.782 18.6904 160.213 18.309 159.735 17.8277C159.265 17.3464 158.893 16.7784 158.64 16.1551C158.369 15.4971 158.232 14.7913 158.237 14.0794ZM163.383 18.008C163.878 18.0107 164.368 17.9079 164.82 17.7063C165.261 17.5102 165.658 17.2256 165.986 16.87C166.319 16.5046 166.582 16.08 166.76 15.618C167.135 14.6249 167.135 13.5283 166.76 12.5351C166.583 12.0765 166.32 11.656 165.986 11.2963C165.656 10.9459 165.259 10.665 164.82 10.47C164.367 10.2709 163.878 10.1681 163.383 10.1681C162.889 10.1681 162.4 10.2709 161.947 10.47C161.507 10.665 161.111 10.9459 160.781 11.2963C160.445 11.6568 160.18 12.0769 159.997 12.5351C159.8 13.0249 159.701 13.5488 159.706 14.0769C159.701 14.6039 159.797 15.1269 159.987 15.618C160.165 16.0802 160.427 16.5049 160.761 16.87C161.091 17.2275 161.492 17.5123 161.938 17.7063C162.393 17.9073 162.886 18.0101 163.383 18.008Z" fill="#072C31"></path>
  <path d="M170.463 19.1356V9.04042H171.951V10.4714C172.225 9.96888 172.627 9.54813 173.116 9.252C173.616 8.95873 174.186 8.80886 174.764 8.81883C174.931 8.81762 175.098 8.82787 175.264 8.8495C175.415 8.87042 175.563 8.90757 175.706 8.9603V10.3281C175.534 10.2748 175.36 10.231 175.183 10.1966C175.011 10.1635 174.836 10.1467 174.661 10.1465C174.074 10.1369 173.5 10.3249 173.033 10.6805C172.564 11.0369 172.202 11.5506 171.947 12.2216V19.1356H170.463Z" fill="#072C31"></path>
  <path d="M182.383 5.03125H188.092C189.446 5.03125 190.524 5.36031 191.328 6.01842C192.132 6.67653 192.536 7.55645 192.538 8.65817C192.538 9.38347 192.347 10.0149 191.965 10.5524C191.583 11.0899 191.057 11.4995 190.387 11.7812C191.232 12.0366 191.898 12.4631 192.386 13.0607C192.874 13.6583 193.118 14.3602 193.12 15.1665C193.12 16.3767 192.681 17.3405 191.803 18.0579C190.925 18.7752 189.769 19.1345 188.335 19.1358H182.385L182.383 5.03125ZM188.012 6.38461H183.931V11.1796H188.012C188.923 11.1796 189.65 10.9613 190.193 10.5248C190.736 10.0883 191.007 9.50741 191.005 8.78211C191.005 8.05639 190.734 7.47549 190.193 7.03939C189.652 6.60329 188.925 6.38503 188.012 6.38461ZM188.213 17.7887C189.218 17.7887 190.026 17.5468 190.635 17.0632C191.245 16.5795 191.549 15.9347 191.549 15.1289C191.549 14.3235 191.245 13.6787 190.635 13.1946C190.026 12.7105 189.218 12.4687 188.213 12.4691H183.931V17.7899L188.213 17.7887Z" fill="#072C31"></path>
  <path d="M196.707 9.04102V15.1261C196.707 16.013 196.961 16.7182 197.471 17.242C197.98 17.7657 198.663 18.0278 199.521 18.0282C200.081 18.0404 200.635 17.9009 201.123 17.6243C201.612 17.3477 202.016 16.9442 202.295 16.4564V9.04102H203.78V19.1362H202.292V17.9656C201.92 18.4105 201.45 18.7625 200.918 18.9934C200.355 19.2282 199.75 19.3448 199.14 19.3359C197.987 19.3359 197.049 18.9732 196.325 18.2479C195.602 17.5226 195.24 16.5822 195.24 15.4266V9.04164L196.707 9.04102Z" fill="#072C31"></path>
  <path d="M205.413 17.7458L206.317 16.7761C206.764 17.2024 207.286 17.542 207.856 17.7777C208.406 18.0094 208.997 18.1293 209.594 18.1308C210.398 18.1308 211.054 17.9628 211.564 17.6268C212.074 17.2909 212.328 16.8542 212.328 16.3167C212.328 15.8872 212.177 15.5482 211.876 15.2995C211.574 15.0507 211.101 14.8794 210.459 14.7855L208.71 14.5439C207.704 14.3962 206.957 14.0974 206.469 13.6475C205.98 13.1976 205.735 12.5898 205.735 11.824C205.735 10.9777 206.09 10.2758 206.8 9.71823C207.51 9.16069 208.415 8.88192 209.514 8.88192C210.213 8.87829 210.909 8.98713 211.575 9.2043C212.257 9.43681 212.898 9.77681 213.474 10.2115L212.69 11.2193C212.181 10.8708 211.631 10.5866 211.052 10.373C210.532 10.1868 209.985 10.0913 209.433 10.0907C208.75 10.0907 208.191 10.2453 207.755 10.5545C207.32 10.8638 207.102 11.2667 207.102 11.7633C207.102 12.1936 207.249 12.526 207.544 12.7605C207.839 12.995 208.314 13.1597 208.971 13.2544L210.72 13.496C211.725 13.6308 212.479 13.9296 212.982 14.3924C213.484 14.8552 213.735 15.4699 213.735 16.2365C213.736 16.6628 213.629 17.0821 213.423 17.4553C213.211 17.8439 212.916 18.1809 212.559 18.4425C212.167 18.73 211.728 18.9481 211.262 19.0872C210.741 19.2456 210.199 19.3239 209.654 19.3195C208.855 19.3249 208.062 19.1849 207.312 18.9063C206.61 18.6474 205.964 18.2532 205.413 17.7458Z" fill="#072C31"></path>
  <path d="M216.142 7.10649C215.877 7.1003 215.625 6.99221 215.438 6.80467C215.251 6.61712 215.143 6.36453 215.136 6.0993C215.134 5.96542 215.159 5.83251 215.211 5.70916C215.263 5.58581 215.341 5.47475 215.438 5.38318C215.53 5.28987 215.64 5.21594 215.76 5.16574C215.881 5.11553 216.011 5.09007 216.142 5.09084C216.274 5.08992 216.405 5.1154 216.527 5.16579C216.65 5.21619 216.761 5.29048 216.854 5.38435C216.948 5.47822 217.021 5.58978 217.071 5.71253C217.121 5.83528 217.146 5.96676 217.145 6.0993C217.146 6.23043 217.12 6.36038 217.07 6.48153C217.02 6.60267 216.946 6.71257 216.853 6.80477C216.762 6.90192 216.652 6.97893 216.529 7.03089C216.407 7.08284 216.275 7.10859 216.142 7.10649ZM216.886 9.04077V19.1359H215.396V9.04077H216.886Z" fill="#072C31"></path>
  <path d="M219.401 19.136V9.04082H220.888V10.2302C221.265 9.78237 221.739 9.42729 222.275 9.19231C222.84 8.95136 223.45 8.83112 224.064 8.83925C225.203 8.83925 226.135 9.20211 226.859 9.92783C227.583 10.6535 227.945 11.5938 227.944 12.7485V19.1335H226.477V13.0508C226.477 12.1644 226.222 11.4592 225.713 10.935C225.204 10.4109 224.52 10.149 223.662 10.1494C223.097 10.1401 222.539 10.279 222.044 10.5526C221.564 10.8255 221.165 11.2218 220.888 11.7006V19.136H219.401Z" fill="#072C31"></path>
  <path d="M238.797 18.0681C238.262 18.47 237.669 18.7868 237.038 19.0071C236.394 19.2207 235.718 19.3264 235.04 19.3201C234.339 19.3246 233.645 19.1875 232.999 18.9169C232.382 18.6612 231.821 18.2845 231.351 17.8089C230.632 17.0569 230.146 16.113 229.95 15.0906C229.754 14.0683 229.856 13.0109 230.245 12.0456C230.494 11.435 230.851 10.8751 231.301 10.3936C231.753 9.91473 232.299 9.5335 232.904 9.27325C233.509 9.01299 234.16 8.87917 234.819 8.87999C235.467 8.87545 236.109 9.01304 236.698 9.28312C237.272 9.54462 237.785 9.9218 238.206 10.3911C238.637 10.8767 238.978 11.4363 239.211 12.0431C239.463 12.6918 239.59 13.3825 239.585 14.0787V14.542H231.321C231.428 15.536 231.837 16.3621 232.548 17.0202C233.259 17.6783 234.109 18.0074 235.1 18.0074C235.619 18.0082 236.135 17.9267 236.628 17.7658C237.087 17.6259 237.512 17.3927 237.877 17.0809L238.797 18.0681ZM234.777 10.1895C233.936 10.1781 233.123 10.4977 232.515 11.0797C231.878 11.6706 231.493 12.4295 231.359 13.3564H238.094C237.975 12.5015 237.576 11.7107 236.958 11.1097C236.334 10.4967 235.607 10.19 234.777 10.1895Z" fill="#072C31"></path>
  <path d="M240.491 17.7457L241.396 16.7761C241.843 17.2026 242.366 17.5422 242.937 17.7776C243.487 18.0093 244.078 18.1293 244.675 18.1307C245.479 18.1307 246.136 17.9627 246.645 17.6268C247.155 17.2908 247.41 16.8541 247.41 16.3166C247.41 15.8872 247.259 15.5481 246.957 15.2994C246.655 15.0507 246.183 14.8793 245.54 14.7854L243.791 14.5438C242.786 14.3961 242.039 14.0973 241.55 13.6474C241.061 13.1976 240.816 12.5891 240.813 11.8221C240.813 10.9757 241.169 10.2738 241.879 9.71628C242.589 9.15874 243.494 8.87997 244.592 8.87997C245.292 8.87633 245.988 8.98517 246.653 9.20235C247.336 9.43486 247.977 9.77486 248.552 10.2095L247.769 11.2174C247.259 10.8689 246.709 10.5846 246.131 10.3711C245.611 10.1848 245.064 10.0893 244.512 10.0887C243.829 10.0887 243.269 10.2434 242.834 10.5526C242.398 10.8618 242.18 11.2647 242.18 11.7613C242.18 12.1916 242.327 12.524 242.623 12.7585C242.918 12.9931 243.394 13.1577 244.05 13.2524L245.798 13.4941C246.805 13.6288 247.558 13.9276 248.058 14.3905C248.557 14.8533 248.809 15.468 248.812 16.2346C248.812 16.6608 248.705 17.0802 248.499 17.4534C248.287 17.8419 247.992 18.1789 247.635 18.4405C247.243 18.7281 246.804 18.9462 246.339 19.0853C245.817 19.2437 245.275 19.322 244.73 19.3175C243.931 19.3228 243.137 19.1828 242.388 18.9044C241.686 18.6457 241.042 18.2521 240.491 17.7457Z" fill="#072C31"></path>
  <path d="M249.677 17.7458L250.581 16.7761C251.027 17.2022 251.548 17.5417 252.118 17.7777C252.669 18.0093 253.26 18.1293 253.857 18.1308C254.661 18.1308 255.317 17.9628 255.827 17.6268C256.337 17.2909 256.591 16.8542 256.591 16.3167C256.591 15.8873 256.44 15.5482 256.139 15.2995C255.837 15.0507 255.365 14.8794 254.722 14.7855L252.973 14.5439C251.967 14.3962 251.22 14.0974 250.731 13.6475C250.242 13.1976 249.997 12.5898 249.998 11.824C249.998 10.9777 250.353 10.2758 251.063 9.71824C251.773 9.1607 252.678 8.88193 253.777 8.88193C254.476 8.87818 255.172 8.98703 255.838 9.20431C256.521 9.43598 257.162 9.77535 257.739 10.2096L256.955 11.2175C256.446 10.869 255.895 10.5847 255.317 10.3711C254.797 10.1849 254.25 10.0895 253.698 10.0888C253.015 10.0888 252.455 10.2434 252.02 10.5527C251.584 10.8619 251.366 11.2648 251.366 11.7614C251.366 12.1917 251.514 12.5241 251.809 12.7586C252.104 12.9931 252.58 13.1578 253.236 13.2525L254.985 13.4941C255.99 13.6289 256.744 13.9277 257.247 14.3905C257.749 14.8533 258 15.4681 258 16.2347C258.001 16.6609 257.893 17.0803 257.688 17.4534C257.476 17.842 257.181 18.179 256.824 18.4406C256.431 18.7282 255.993 18.9462 255.527 19.0854C255.006 19.2438 254.463 19.3221 253.918 19.3176C253.119 19.3229 252.326 19.1829 251.577 18.9045C250.874 18.6463 250.228 18.2526 249.677 17.7458Z" fill="#072C31"></path>
  <path fill-rule="evenodd" clip-rule="evenodd" d="M142.37 24V0H143.619V24H142.37Z" fill="#072C31"></path>
</svg>
