<svg width="110" height="32" viewBox="0 0 110 32" fill="none" xmlns="http://www.w3.org/2000/svg">
<path d="M23.8346 16.006C23.8346 16.006 23.7796 15.9362 23.6717 15.8161C23.7796 15.7288 23.8346 15.6764 23.8346 15.6764C28.4947 11.1581 28.4923 5.69851 28.4899 0.367122C28.4899 0.246861 28.4898 0.126665 28.4898 0.00654731L22.091 0C22.091 0 22.1228 4.60931 21.7207 6.44474C20.8743 10.2924 18.1405 12.2609 14.5433 12.2478H12.9426V0L6.35547 0.00654731V12.2478H0V19.105H6.35547V31.3791L12.9256 31.3551L12.9362 19.105H14.7189C18.2166 19.1705 20.5252 21.1718 21.4372 24.8863C21.9582 27.0029 22.1778 29.1864 22.0889 31.3682L28.5025 31.3791C28.9321 27.1932 28.1132 20.0195 23.8346 16.006Z" fill="white"/>
<path d="M39.021 0V31.3797H32.9141V0H39.021Z" fill="white"/>
<path d="M50.217 3.58145C50.217 5.55944 48.6775 7.16291 46.7784 7.16291C44.8793 7.16291 43.3398 5.55944 43.3398 3.58145C43.3398 1.60347 44.8793 0 46.7784 0C48.6775 0 50.217 1.60347 50.217 3.58145Z" fill="white"/>
<path d="M49.8335 9.77539V31.2881H43.7266V9.77539H49.8335Z" fill="white"/>
<path d="M85.0184 31.3973H78.9707V9.77539H85.0184V31.3973Z" fill="white"/>
<path d="M81.9933 7.16291C83.8923 7.16291 85.4318 5.55944 85.4318 3.58145C85.4318 1.60347 83.8923 0 81.9933 0C80.0942 0 78.5547 1.60347 78.5547 3.58145C78.5547 5.55944 80.0942 7.16291 81.9933 7.16291Z" fill="white"/>
<path fill-rule="evenodd" clip-rule="evenodd" d="M88.1268 20.9802C87.9257 14.3957 93.091 9.00495 99.4137 9.2232C105.138 9.41307 109.799 14.2713 109.994 20.236C110.195 26.8206 105.03 32.2113 98.707 31.993C92.9725 31.8032 88.3087 26.945 88.1268 20.9802ZM96.1843 25.6815C97.1919 26.2766 98.3526 26.5379 99.509 26.4299C100.84 26.3112 102.088 25.7084 103.028 24.7289C103.968 23.7495 104.541 22.4572 104.643 21.0828C104.736 19.8891 104.471 18.6946 103.884 17.6612C103.297 16.6279 102.416 15.8056 101.361 15.3059C100.306 14.8061 99.1273 14.653 97.9849 14.8673C96.8425 15.0816 95.7916 15.653 94.9746 16.504C94.1576 17.355 93.614 18.4445 93.4175 19.6248C93.2209 20.8052 93.3809 22.0193 93.8759 23.1027C94.3708 24.186 95.1766 25.0863 96.1843 25.6815Z" fill="white"/>
<path d="M65.6459 9.16304C70.3096 8.51921 74.4529 11.5485 74.7935 16.446C75.1257 21.2584 74.9755 31.2127 74.9755 31.2127L68.8199 31.1996C68.8199 31.1996 68.8665 22.4936 68.7924 18.7834C68.7416 16.2648 67.6815 14.9532 65.7369 14.6629C63.5108 14.3312 61.5619 15.5228 60.9271 17.7053C60.6827 18.5825 60.5567 19.4902 60.5526 20.4028C60.5081 23.4976 60.5356 31.2236 60.5356 31.2236H54.3145L54.3441 9.69993H59.9326V12.1007C61.4491 10.4677 63.4688 9.42925 65.6459 9.16304Z" fill="white"/>
</svg>
