<?xml version="1.0" encoding="UTF-8"?>
<svg xmlns="http://www.w3.org/2000/svg" width="136" height="30" viewBox="0 0 136 30" fill="none">
  <path d="M24.277 29.9828H19.9406V16.7157L12.1385 24.697L4.33642 16.7157V29.9828H0V6.02148L12.1559 18.4485L24.2944 6.02148V29.9828H24.277Z" fill="#101010"></path>
  <path d="M49.5114 10.3092C51.7579 12.5671 52.8725 15.28 52.8725 18.4655C52.8725 21.651 51.7579 24.364 49.5114 26.6218C47.2648 28.8797 44.5654 29.9999 41.3958 29.9999C38.2262 29.9999 35.5268 28.8797 33.2977 26.6218C31.0511 24.364 29.9365 21.651 29.9365 18.4655C29.9365 15.28 31.0511 12.5496 33.2977 10.3092C35.5443 8.05133 38.2436 6.93115 41.3958 6.93115C44.5654 6.93115 47.2822 8.05133 49.5114 10.3092ZM41.3958 25.5541C43.3463 25.5541 45.0008 24.8715 46.3766 23.4888C47.7698 22.0886 48.449 20.4258 48.449 18.483C48.449 16.5227 47.7524 14.8599 46.3766 13.4772C45.0008 12.077 43.3463 11.3944 41.3958 11.3944C39.4627 11.3944 37.7908 12.0945 36.415 13.4772C35.0392 14.8599 34.36 16.5227 34.36 18.483C34.36 20.4258 35.0392 22.1061 36.415 23.4888C37.7908 24.8715 39.4453 25.5541 41.3958 25.5541Z" fill="#101010"></path>
  <path d="M76.4506 6.93115V11.3594H63.2149V16.2426H72.4799V20.6709H63.2149V25.5366H76.4506V29.9649H58.8088V6.93115H76.4506Z" fill="#101010"></path>
  <path d="M69.8545 1.57525L66.981 4.46322L65.4136 2.88796L68.3045 0L69.8545 1.57525Z" fill="#101010"></path>
  <path d="M86.9534 29.9824H82.5474V6.93115H93.3449C95.3476 6.93115 97.0717 7.64877 98.4998 9.084C99.9104 10.5017 100.624 12.2345 100.624 14.2473C100.624 15.9976 100.067 17.5379 98.97 18.8856C97.8903 20.2158 96.5319 21.0559 94.86 21.406L101.269 29.9824H95.7482L89.4613 21.5635H86.936V29.9824H86.9534ZM86.9534 17.1353H93.3449C94.1286 17.1353 94.8078 16.8552 95.3825 16.2777C95.9398 15.7176 96.2184 15.035 96.2184 14.2298C96.2184 13.4422 95.9398 12.7596 95.3825 12.1995C94.8252 11.6394 94.146 11.3419 93.3449 11.3419H86.9534V17.1353Z" fill="#101010"></path>
  <path d="M106.913 6.93115H111.319V29.9824H106.913V6.93115Z" fill="#101010"></path>
  <path d="M135.267 6.93115V11.3594H122.031V16.2426H131.296V20.6709H122.031V25.5366H135.267V29.9649H117.608V6.93115H135.267Z" fill="#101010"></path>
</svg>
