<svg width="168" height="43" viewBox="0 0 168 43" fill="none" xmlns="http://www.w3.org/2000/svg">
<rect width="40" height="40" rx="16" fill="white"/>
<mask id="mask0_521_826" style="mask-type:alpha" maskUnits="userSpaceOnUse" x="0" y="0" width="40" height="40">
<rect width="40" height="40" rx="10" fill="white"/>
</mask>
<g mask="url(#mask0_521_826)">
<rect width="40" height="40" transform="matrix(1 0 0 -1 0 40)" fill="#79CCC8"/>
<g filter="url(#filter0_f_521_826)">
<path d="M36 62.5C36 87.1159 16.2616 107 -8 107C-32.2616 107 -52 87.1159 -52 62.5C-52 37.8841 -32.2616 18 -8 18C16.2616 18 36 37.8841 36 62.5Z" stroke="#BCFFFC" stroke-opacity="0.4" stroke-width="8" style="mix-blend-mode:overlay"/>
</g>
<path d="M36 62.5C36 87.1159 16.2616 107 -8 107C-32.2616 107 -52 87.1159 -52 62.5C-52 37.8841 -32.2616 18 -8 18C16.2616 18 36 37.8841 36 62.5Z" stroke="#BCFFFC" stroke-opacity="0.4" stroke-width="8" style="mix-blend-mode:overlay"/>
<g filter="url(#filter1_f_521_826)">
<circle cx="34.8438" cy="-33.9062" r="21.6562" stroke="#BCFFFC" stroke-opacity="0.4" stroke-width="27" style="mix-blend-mode:overlay"/>
</g>
<circle cx="32.5" cy="-31.5" r="24.5" stroke="#BCFFFC" stroke-opacity="0.4" stroke-width="20" style="mix-blend-mode:overlay"/>
<g filter="url(#filter2_f_521_826)">
<circle cx="-25.4688" cy="-14.5312" r="21.6562" stroke="#BCFFFC" stroke-opacity="0.4" stroke-width="27" style="mix-blend-mode:overlay"/>
</g>
<circle cx="-22" cy="-17" r="25" stroke="#BCFFFC" stroke-opacity="0.4" stroke-width="20" style="mix-blend-mode:overlay"/>
<g opacity="0.4" filter="url(#filter3_f_521_826)">
<circle cx="67.0312" cy="22.3438" r="24.6562" stroke="black" stroke-opacity="0.1" stroke-width="21"/>
</g>
<circle opacity="0.4" cx="66.5" cy="22.5" r="25" stroke="black" stroke-opacity="0.1" stroke-width="19"/>
<g opacity="0.4" filter="url(#filter4_f_521_826)">
<circle cx="68.5" cy="22.5" r="34" stroke="white" stroke-opacity="0.3"/>
</g>
</g>
<g filter="url(#filter5_d_521_826)">
<ellipse cx="11.5625" cy="17.5" rx="1.5625" ry="2.8125" fill="#111827"/>
<ellipse cx="29.0625" cy="17.3438" rx="1.25" ry="2.65625" fill="#111827"/>
<path d="M13.75 24.2724C16.7803 26.3103 23.4659 26.137 26.875 23.125" stroke="#111827" stroke-linecap="round"/>
</g>
<path d="M61.5078 27.2246C64.4277 27.2246 66.4199 25.8281 66.4199 23.6309V23.6211C66.4199 22.0293 65.4434 21.1504 63.1875 20.7012L61.3125 20.3301C60.3066 20.125 59.9844 19.8516 59.9844 19.3926V19.3828C59.9844 18.8262 60.5312 18.4746 61.3809 18.4746C62.3379 18.4746 62.875 18.9922 62.9531 19.6172L62.9629 19.6953H66.127L66.1172 19.6172C66.0879 17.7129 64.457 16.1406 61.3809 16.1406C58.4707 16.1406 56.6543 17.459 56.6543 19.5781V19.5879C56.6543 21.209 57.7383 22.293 59.8184 22.6934L61.6934 23.0645C62.6406 23.2598 62.9824 23.5234 62.9824 24.002V24.0117C62.9824 24.5586 62.4258 24.8906 61.5078 24.8906C60.4922 24.8906 59.9453 24.4707 59.7793 23.748L59.7598 23.6699H56.4004L56.4102 23.7578C56.6445 25.8281 58.3438 27.2246 61.5078 27.2246ZM72.7285 27.2246C76.1172 27.2246 77.4551 25.2324 77.7773 23.7578L77.8066 23.6406H74.6816L74.6719 23.6895C74.5156 24.1289 73.9102 24.7637 72.7969 24.7637C71.5371 24.7637 70.7559 23.9141 70.7168 22.4785H77.8652V21.4629C77.8652 18.2402 75.8242 16.1406 72.6113 16.1406C69.3789 16.1406 67.3281 18.2598 67.3281 21.6777V21.6875C67.3281 25.125 69.3691 27.2246 72.7285 27.2246ZM72.6895 18.6016C73.7051 18.6016 74.4277 19.2461 74.6035 20.4375H70.7656C70.9414 19.2656 71.6738 18.6016 72.6895 18.6016ZM79.2129 27H82.6797V20.9648C82.6797 19.7832 83.3633 18.9629 84.4668 18.9629C85.5996 18.9629 86.1758 19.6758 86.1758 20.8965V27H89.6328V20.1543C89.6328 17.6348 88.3145 16.1406 85.9805 16.1406C84.3691 16.1406 83.2754 16.9023 82.748 18.2402H82.6797V16.3652H79.2129V27ZM95.9414 27.2246C98.8613 27.2246 100.854 25.8281 100.854 23.6309V23.6211C100.854 22.0293 99.877 21.1504 97.6211 20.7012L95.7461 20.3301C94.7402 20.125 94.418 19.8516 94.418 19.3926V19.3828C94.418 18.8262 94.9648 18.4746 95.8145 18.4746C96.7715 18.4746 97.3086 18.9922 97.3867 19.6172L97.3965 19.6953H100.561L100.551 19.6172C100.521 17.7129 98.8906 16.1406 95.8145 16.1406C92.9043 16.1406 91.0879 17.459 91.0879 19.5781V19.5879C91.0879 21.209 92.1719 22.293 94.252 22.6934L96.127 23.0645C97.0742 23.2598 97.416 23.5234 97.416 24.002V24.0117C97.416 24.5586 96.8594 24.8906 95.9414 24.8906C94.9258 24.8906 94.3789 24.4707 94.2129 23.748L94.1934 23.6699H90.834L90.8438 23.7578C91.0781 25.8281 92.7773 27.2246 95.9414 27.2246ZM105.277 27.1465C106.664 27.1465 107.719 26.541 108.324 25.4961H108.393V27H111.85V19.7441C111.85 17.5859 109.965 16.1406 107.104 16.1406C104.145 16.1406 102.377 17.5566 102.211 19.627L102.201 19.7539H105.316L105.336 19.6562C105.453 19.1094 106 18.6797 106.928 18.6797C107.895 18.6797 108.393 19.1582 108.393 19.9297V20.457L105.971 20.6133C103.227 20.7988 101.684 21.9219 101.684 23.9238V23.9336C101.684 25.7891 103.139 27.1465 105.277 27.1465ZM105.082 23.709V23.6992C105.082 23.0645 105.561 22.6641 106.527 22.6055L108.393 22.4785V23.1914C108.393 24.0898 107.602 24.7539 106.488 24.7539C105.639 24.7539 105.082 24.373 105.082 23.709ZM114.828 27.1367C115.453 27.1367 115.941 26.6484 115.941 26.0234C115.941 25.3984 115.453 24.9102 114.828 24.9102C114.203 24.9102 113.715 25.3984 113.715 26.0234C113.715 26.6484 114.203 27.1367 114.828 27.1367ZM118.168 27H119.867V21.0723C119.867 19.3438 120.912 18.1523 122.484 18.1523C124.066 18.1523 125.004 19.2363 125.004 21.0723V27H126.703V20.7793C126.703 18.3184 125.229 16.6484 123.07 16.6484C121.557 16.6484 120.453 17.3223 119.906 18.4648H119.867V12.9082H118.168V27ZM133.041 27.1953C135.258 27.1953 136.918 25.8672 137.25 24.1875L137.27 24.0898H135.6L135.57 24.1777C135.277 25.0469 134.369 25.6914 133.08 25.6914C131.273 25.6914 130.121 24.4707 130.082 22.3809H137.396V21.7559C137.396 18.709 135.707 16.6484 132.934 16.6484C130.16 16.6484 128.363 18.8066 128.363 21.9512V21.9609C128.363 25.1543 130.121 27.1953 133.041 27.1953ZM132.924 18.1523C134.408 18.1523 135.502 19.0801 135.668 21.0527H130.111C130.297 19.1582 131.449 18.1523 132.924 18.1523ZM142.084 27.1953C143.441 27.1953 144.662 26.4629 145.258 25.3496H145.297V27H146.996V19.9785C146.996 17.9473 145.492 16.6484 143.09 16.6484C140.697 16.6484 139.242 17.9961 139.096 19.666L139.086 19.7734H140.727L140.746 19.6855C140.941 18.7773 141.762 18.1523 143.07 18.1523C144.486 18.1523 145.297 18.9043 145.297 20.1445V20.9941L142.387 21.1602C140.053 21.2969 138.705 22.3809 138.705 24.1094V24.1289C138.705 25.9746 140.062 27.1953 142.084 27.1953ZM140.443 24.1289V24.1094C140.443 23.1621 141.225 22.5566 142.582 22.4785L145.297 22.3125V23.1426C145.297 24.6172 144.066 25.7207 142.465 25.7207C141.244 25.7207 140.443 25.1055 140.443 24.1289ZM149.242 27H150.941V12.9082H149.242V27ZM156.537 27.1953C156.869 27.1953 157.23 27.1562 157.445 27.127V25.75C157.299 25.7598 157.104 25.7891 156.898 25.7891C155.99 25.7891 155.512 25.4863 155.512 24.4023V18.25H157.445V16.8438H155.512V14.0996H153.754V16.8438H152.27V18.25H153.754V24.4121C153.754 26.3555 154.672 27.1953 156.537 27.1953ZM159.359 27H161.059V21.0723C161.059 19.3438 162.104 18.1523 163.676 18.1523C165.258 18.1523 166.195 19.2363 166.195 21.0723V27H167.895V20.7793C167.895 18.3184 166.42 16.6484 164.262 16.6484C162.748 16.6484 161.645 17.3223 161.098 18.4648H161.059V12.9082H159.359V27Z" fill="#111827"/>
<defs>
<filter id="filter0_f_521_826" x="-65" y="5" width="114" height="115" filterUnits="userSpaceOnUse" color-interpolation-filters="sRGB">
<feFlood flood-opacity="0" result="BackgroundImageFix"/>
<feBlend mode="normal" in="SourceGraphic" in2="BackgroundImageFix" result="shape"/>
<feGaussianBlur stdDeviation="4.5" result="effect1_foregroundBlur_521_826"/>
</filter>
<filter id="filter1_f_521_826" x="-9.3125" y="-78.0625" width="88.3125" height="88.3125" filterUnits="userSpaceOnUse" color-interpolation-filters="sRGB">
<feFlood flood-opacity="0" result="BackgroundImageFix"/>
<feBlend mode="normal" in="SourceGraphic" in2="BackgroundImageFix" result="shape"/>
<feGaussianBlur stdDeviation="4.5" result="effect1_foregroundBlur_521_826"/>
</filter>
<filter id="filter2_f_521_826" x="-69.625" y="-58.6875" width="88.3125" height="88.3125" filterUnits="userSpaceOnUse" color-interpolation-filters="sRGB">
<feFlood flood-opacity="0" result="BackgroundImageFix"/>
<feBlend mode="normal" in="SourceGraphic" in2="BackgroundImageFix" result="shape"/>
<feGaussianBlur stdDeviation="4.5" result="effect1_foregroundBlur_521_826"/>
</filter>
<filter id="filter3_f_521_826" x="21.875" y="-22.8125" width="90.3125" height="90.3125" filterUnits="userSpaceOnUse" color-interpolation-filters="sRGB">
<feFlood flood-opacity="0" result="BackgroundImageFix"/>
<feBlend mode="normal" in="SourceGraphic" in2="BackgroundImageFix" result="shape"/>
<feGaussianBlur stdDeviation="5" result="effect1_foregroundBlur_521_826"/>
</filter>
<filter id="filter4_f_521_826" x="33" y="-13" width="71" height="71" filterUnits="userSpaceOnUse" color-interpolation-filters="sRGB">
<feFlood flood-opacity="0" result="BackgroundImageFix"/>
<feBlend mode="normal" in="SourceGraphic" in2="BackgroundImageFix" result="shape"/>
<feGaussianBlur stdDeviation="0.5" result="effect1_foregroundBlur_521_826"/>
</filter>
<filter id="filter5_d_521_826" x="2" y="14.6875" width="36.3125" height="27.4375" filterUnits="userSpaceOnUse" color-interpolation-filters="sRGB">
<feFlood flood-opacity="0" result="BackgroundImageFix"/>
<feColorMatrix in="SourceAlpha" type="matrix" values="0 0 0 0 0 0 0 0 0 0 0 0 0 0 0 0 0 0 127 0" result="hardAlpha"/>
<feOffset dy="8"/>
<feGaussianBlur stdDeviation="4"/>
<feColorMatrix type="matrix" values="0 0 0 0 0 0 0 0 0 0.516667 0 0 0 0 0.392667 0 0 0 0.24 0"/>
<feBlend mode="normal" in2="BackgroundImageFix" result="effect1_dropShadow_521_826"/>
<feBlend mode="normal" in="SourceGraphic" in2="effect1_dropShadow_521_826" result="shape"/>
</filter>
</defs>
</svg>
