<svg width="116" height="38" viewBox="0 0 116 38" fill="none" xmlns="http://www.w3.org/2000/svg">
<path d="M7.515 37V22.555L0.405 0.549997H7.38L11.295 13.375L14.94 0.549997H21.69L14.67 22.555V37H7.515ZM34.4043 37.495C31.7343 37.495 29.6193 37.015 28.0593 36.055C26.4993 35.095 25.3743 33.73 24.6843 31.96C24.0243 30.16 23.6943 28.015 23.6943 25.525V11.935C23.6943 9.445 24.0243 7.315 24.6843 5.545C25.3743 3.775 26.4993 2.425 28.0593 1.495C29.6193 0.564998 31.7343 0.0999976 34.4043 0.0999976C37.1043 0.0999976 39.2343 0.579998 40.7943 1.54C42.3843 2.47 43.5093 3.82 44.1693 5.59C44.8593 7.33 45.2043 9.445 45.2043 11.935V25.525C45.2043 28.015 44.8593 30.16 44.1693 31.96C43.5093 33.73 42.3843 35.095 40.7943 36.055C39.2343 37.015 37.1043 37.495 34.4043 37.495ZM34.4043 32.14C35.3643 32.14 36.0693 31.93 36.5193 31.51C36.9693 31.06 37.2693 30.475 37.4193 29.755C37.5693 29.005 37.6443 28.21 37.6443 27.37V10.135C37.6443 9.295 37.5693 8.515 37.4193 7.795C37.2693 7.075 36.9693 6.505 36.5193 6.085C36.0693 5.635 35.3643 5.41 34.4043 5.41C33.5043 5.41 32.8293 5.635 32.3793 6.085C31.9293 6.505 31.6293 7.075 31.4793 7.795C31.3293 8.515 31.2543 9.295 31.2543 10.135V27.37C31.2543 28.21 31.3143 29.005 31.4343 29.755C31.5843 30.475 31.8843 31.06 32.3343 31.51C32.7843 31.93 33.4743 32.14 34.4043 32.14ZM60.287 37.495C57.587 37.495 55.442 36.985 53.852 35.965C52.292 34.945 51.197 33.535 50.567 31.735C49.937 29.905 49.622 27.79 49.622 25.39V12.295C49.622 9.775 49.937 7.615 50.567 5.815C51.197 3.985 52.292 2.575 53.852 1.585C55.442 0.594998 57.587 0.0999976 60.287 0.0999976C62.897 0.0999976 64.937 0.534998 66.407 1.405C67.907 2.275 68.957 3.505 69.557 5.095C70.187 6.685 70.502 8.53 70.502 10.63V13.69H63.302V10.27C63.302 9.43 63.257 8.65 63.167 7.93C63.077 7.18 62.822 6.58 62.402 6.13C62.012 5.65 61.322 5.41 60.332 5.41C59.342 5.41 58.622 5.65 58.172 6.13C57.722 6.61 57.437 7.24 57.317 8.02C57.197 8.77 57.137 9.61 57.137 10.54V27.1C57.137 28.12 57.212 29.02 57.362 29.8C57.542 30.55 57.857 31.135 58.307 31.555C58.787 31.945 59.462 32.14 60.332 32.14C61.292 32.14 61.967 31.915 62.357 31.465C62.777 30.985 63.032 30.355 63.122 29.575C63.242 28.795 63.302 27.97 63.302 27.1V23.545H70.502V26.56C70.502 28.69 70.202 30.58 69.602 32.23C69.002 33.85 67.967 35.14 66.497 36.1C65.027 37.03 62.957 37.495 60.287 37.495ZM78.455 37V6.085H72.83V0.549997H91.46V6.085H85.925V37H78.455ZM104.673 37.495C102.003 37.495 99.8878 37.015 98.3278 36.055C96.7678 35.095 95.6428 33.73 94.9528 31.96C94.2928 30.16 93.9628 28.015 93.9628 25.525V11.935C93.9628 9.445 94.2928 7.315 94.9528 5.545C95.6428 3.775 96.7678 2.425 98.3278 1.495C99.8878 0.564998 102.003 0.0999976 104.673 0.0999976C107.373 0.0999976 109.503 0.579998 111.063 1.54C112.653 2.47 113.778 3.82 114.438 5.59C115.128 7.33 115.473 9.445 115.473 11.935V25.525C115.473 28.015 115.128 30.16 114.438 31.96C113.778 33.73 112.653 35.095 111.063 36.055C109.503 37.015 107.373 37.495 104.673 37.495ZM104.673 32.14C105.633 32.14 106.338 31.93 106.788 31.51C107.238 31.06 107.538 30.475 107.688 29.755C107.838 29.005 107.913 28.21 107.913 27.37V10.135C107.913 9.295 107.838 8.515 107.688 7.795C107.538 7.075 107.238 6.505 106.788 6.085C106.338 5.635 105.633 5.41 104.673 5.41C103.773 5.41 103.098 5.635 102.648 6.085C102.198 6.505 101.898 7.075 101.748 7.795C101.598 8.515 101.523 9.295 101.523 10.135V27.37C101.523 28.21 101.583 29.005 101.703 29.755C101.853 30.475 102.153 31.06 102.603 31.51C103.053 31.93 103.743 32.14 104.673 32.14Z" fill="white"/>
</svg>
